<?xml version="1.0" encoding="utf-8"?>
<!-- Generator: Adobe Illustrator 28.0.0, SVG Export Plug-In . SVG Version: 6.00 Build 0)  -->
<svg version="1.1" id="Capa_1" xmlns="http://www.w3.org/2000/svg" xmlns:xlink="http://www.w3.org/1999/xlink" x="0px" y="0px"
	 viewBox="0 0 50 50" style="enable-background:new 0 0 50 50;" xml:space="preserve">
<style type="text/css">
	.st0{fill:#FFFFFF;}
	.st1{fill:#E8E8E8;}
	.st2{fill:#F3DC2A;}
	.st3{fill:#E54E59;}
	.st4{fill:#8C401F;}
</style>
<g>
	<circle class="st0" cx="25" cy="25" r="24.3"/>
	<path class="st1" d="M25,49.5c-13.5,0-24.5-11-24.5-24.5S11.5,0.5,25,0.5s24.5,11,24.5,24.5S38.5,49.5,25,49.5z M25,1
		C11.8,1,1,11.8,1,25s10.8,24,24,24s24-10.8,24-24S38.2,1,25,1z"/>
</g>
<circle class="st2" cx="25" cy="25" r="19.4"/>
<g>
	<path class="st3" d="M13.5,31.9h22.8c0.2,0,0.3,0.1,0.3,0.3v2.4c0,0.9-0.7,1.7-1.7,1.7H14.9c-0.9,0-1.7-0.7-1.7-1.7v-2.4
		C13.2,32,13.4,31.9,13.5,31.9z"/>
	<g>
		<path class="st2" d="M14.2,27h21.6c0.2,0,0.4,0.2,0.4,0.4v1c0,0.2-0.2,0.4-0.4,0.4H14.2c-0.2,0-0.4-0.2-0.4-0.4v-1
			C13.9,27.1,14,27,14.2,27z"/>
		<path class="st3" d="M35.8,29.1H14.2c-0.5,0-0.9-0.4-0.9-0.9v-1c0-0.5,0.4-0.9,0.9-0.9h21.6c0.5,0,0.9,0.4,0.9,0.9v1
			C36.6,28.7,36.2,29.1,35.8,29.1z M14.4,28.1h21.3v-0.7H14.4V28.1z"/>
	</g>
	<path class="st4" d="M32.6,31.9h2.1c0.8,0,1.4-0.6,1.4-1.4V30c0-0.5-0.3-0.9-0.7-1.2C35,30.2,33.6,31.3,32.6,31.9z"/>
	<path class="st3" d="M35.7,27H14.5c-0.4-0.3-0.7-0.6-0.7-0.9v-2.3c0-0.3,0.2-0.6,0.6-0.6h21.2c0.3,0,0.6,0.2,0.6,0.6v2.3
		C36.1,26.5,35.9,26.7,35.7,27z"/>
	<g>
		<path class="st2" d="M37.1,24.6l-1-1.9H13.9l-1,1.9c-0.5,1,1.1,1.2,1.7,0.9c0.2-0.1,0.4-0.3,0.6-0.5c0.7-0.4,1.4-0.2,2,0.3
			c0,0,1.9,2,3.5,0.2c0.6-0.6,1.3-1,2.1-0.5c0.7,0.4,1.2,1.1,2,1.4c0.5,0.2,1.1,0,1.5-0.3c0.3-0.2,0.4-0.6,0.8-0.8
			c0.8-0.5,1.8-0.4,2.5,0.3c1.7,1.9,3.5-0.2,3.5-0.2c0.6-0.5,1.3-0.8,2-0.3c0.2,0.1,0.4,0.3,0.6,0.5C36,25.8,37.5,25.6,37.1,24.6
			L37.1,24.6z"/>
		<path class="st3" d="M25.1,26.9c-0.2,0-0.4,0-0.6-0.1c-0.5-0.2-0.9-0.5-1.3-0.8c-0.3-0.2-0.5-0.4-0.8-0.6s-0.8-0.3-1.5,0.4
			c-0.6,0.6-1.3,0.9-2,0.9l0,0c-1.3,0-2.3-1.1-2.3-1.1c-0.3-0.2-0.8-0.6-1.4-0.3c-0.1,0-0.1,0.1-0.2,0.2c-0.1,0.1-0.2,0.2-0.4,0.3
			c-0.5,0.3-1.6,0.3-2.2-0.2c-0.4-0.3-0.4-0.8-0.2-1.3l0,0c0.1-0.2,0.3-0.7,1-1.9l0.1-0.3h22.7l1.1,2.2c0.2,0.5,0.2,1-0.2,1.3
			c-0.6,0.5-1.6,0.5-2.2,0.2c-0.2-0.1-0.3-0.2-0.4-0.3s-0.1-0.1-0.2-0.2c-0.5-0.4-1.1,0-1.4,0.3c0,0-1,1.1-2.3,1.1
			c-0.7,0-1.4-0.3-2-0.9c-0.5-0.5-1.3-0.6-1.9-0.2c-0.1,0.1-0.2,0.2-0.3,0.3s-0.2,0.3-0.4,0.4C26.1,26.7,25.6,26.9,25.1,26.9z
			 M22,24.3c0.4,0,0.7,0.1,0.9,0.2c0.4,0.2,0.7,0.5,1,0.7c0.3,0.3,0.6,0.5,1,0.7c0.3,0.1,0.7,0,1-0.2c0.1-0.1,0.2-0.2,0.3-0.3
			c0.1-0.2,0.3-0.4,0.6-0.6c1-0.7,2.3-0.5,3,0.4c0.4,0.4,0.8,0.6,1.3,0.6l0,0c0.9,0,1.6-0.8,1.6-0.8c0.9-0.8,1.8-0.9,2.5-0.4
			c0.1,0.1,0.2,0.2,0.3,0.3c0.1,0.1,0.2,0.1,0.2,0.2c0.1,0.1,0.5,0.1,0.8,0c0.2-0.1,0.2-0.1,0.2-0.1l0,0c0,0,0,0,0-0.1l-0.8-1.8
			H14.2c-0.2,0.4-0.6,1.3-0.8,1.5l0,0l-0.1,0.1c0,0.1,0,0.1,0,0.1s0.1,0.1,0.2,0.1c0.3,0.1,0.7,0.1,0.8,0c0.1,0,0.2-0.1,0.2-0.2
			c0.1-0.1,0.2-0.2,0.3-0.3c0.8-0.5,1.8-0.4,2.5,0.4c0,0,0.8,0.8,1.7,0.8l0,0c0.5,0,0.9-0.2,1.3-0.6C20.9,24.5,21.5,24.3,22,24.3z"
			/>
	</g>
	<path class="st3" d="M13.4,23L13.4,23c0-4.3,5-9.2,11.3-9.2l0,0c6.4,0,11.7,4.9,11.7,9.2l0,0H13.4L13.4,23z"/>
	<g>
		<path class="st2" d="M14.4,28.6h21.1c0.4,0,0.7,0.3,0.7,0.7v1.8c0,0.4-0.3,0.7-0.7,0.7H14.4c-0.4,0-0.7-0.3-0.7-0.7v-1.8
			C13.7,28.9,14,28.6,14.4,28.6z"/>
		<path class="st3" d="M35.6,32.3H14.4c-0.7,0-1.2-0.6-1.2-1.2v-1.8c0-0.7,0.6-1.2,1.2-1.2h21.1c0.7,0,1.2,0.6,1.2,1.2v1.8
			C36.8,31.8,36.2,32.3,35.6,32.3z M14.4,29.1c-0.1,0-0.2,0.1-0.2,0.2v1.8c0,0.1,0.1,0.2,0.2,0.2h21.1c0.1,0,0.2-0.1,0.2-0.2v-1.8
			c0-0.1-0.1-0.2-0.2-0.2H14.4z"/>
	</g>
	<path class="st3" d="M30.5,30.6l3.4-3.6H17.1C17.1,27,24.8,27.5,30.5,30.6z"/>
</g>
</svg>
