<?xml version="1.0" encoding="UTF-8"?>
<svg id="Capa_1" data-name="Capa 1" xmlns="http://www.w3.org/2000/svg" viewBox="0 0 50 50">
  <defs>
    <style>
      .cls-1 {
        fill: #e54e59;
      }

      .cls-1, .cls-2, .cls-3 {
        stroke-width: 0px;
      }

      .cls-2, .cls-4 {
        fill: #f3dc2a;
      }

      .cls-5 {
        fill: #fff;
        stroke: #e8e8e8;
        stroke-linecap: round;
        stroke-linejoin: round;
        stroke-width: .5px;
      }

      .cls-4 {
        stroke: #e54e59;
        stroke-miterlimit: 10;
      }

      .cls-3 {
        fill: #8c401f;
      }
    </style>
  </defs>
  <circle class="cls-5" cx="25" cy="25" r="25"/>
  <circle class="cls-2" cx="25" cy="25" r="20"/>
  <g>
    <path class="cls-1" d="m13.23,32.07h23.54c.16,0,.3.13.3.3v2.46c0,.93-.75,1.68-1.68,1.68H14.61c-.93,0-1.68-.75-1.68-1.68v-2.46c0-.16.13-.3.3-.3Z"/>
    <rect class="cls-4" x="13.55" y="26.98" width="22.9" height="1.74" rx=".39" ry=".39"/>
    <path class="cls-3" d="m32.87,32.07h2.12c.78,0,1.41-.64,1.41-1.41v-.53c0-.5-.26-.94-.66-1.19-.44,1.45-1.86,2.53-2.87,3.13Z"/>
    <path class="cls-1" d="m36,27.03H14.22c-.42-.31-.67-.56-.67-.87v-2.3c0-.31.25-.56.56-.56h21.78c.31,0,.56.25.56.56v2.3c0,.31-.25.56-.45.87Z"/>
    <path class="cls-4" d="m37.41,24.56s-.98-1.95-.98-1.95H13.58s-.98,1.94-.98,1.95c-.5,1,1.14,1.23,1.67.91.22-.13.38-.34.59-.48.68-.45,1.43-.19,2.01.33,0,0,1.89,2.03,3.65.16.59-.62,1.3-.96,2.1-.54.72.38,1.26,1.14,2.03,1.42.53.2,1.11.03,1.54-.34.29-.25.45-.63.77-.83.83-.54,1.85-.44,2.54.29,1.76,1.87,3.65-.16,3.65-.16.58-.52,1.33-.78,2.01-.33.21.14.37.35.59.48.53.32,2.17.09,1.67-.91Z"/>
    <path class="cls-1" d="m13.13,22.96h0c0-4.46,5.12-9.47,11.64-9.47h0c6.52,0,12.06,5.01,12.06,9.47h0s-23.71,0-23.71,0Z"/>
    <rect class="cls-4" x="13.38" y="28.72" width="23.24" height="3.35" rx=".75" ry=".75"/>
    <path class="cls-1" d="m30.67,30.75l3.57-3.71h-17.38s7.91.54,13.81,3.71Z"/>
  </g>
</svg>