<?xml version="1.0" encoding="utf-8"?>
<!-- Generator: Adobe Illustrator 28.0.0, SVG Export Plug-In . SVG Version: 6.00 Build 0)  -->
<svg version="1.1" id="Capa_1" xmlns="http://www.w3.org/2000/svg" xmlns:xlink="http://www.w3.org/1999/xlink" x="0px" y="0px"
	 viewBox="0 0 50 50" style="enable-background:new 0 0 50 50;" xml:space="preserve">
<style type="text/css">
	.st0{fill:#FFFFFF;}
	.st1{fill:#E8E8E8;}
	.st2{fill:#F3DC2A;}
	.st3{fill:#E54E59;}
</style>
<g>
	<circle class="st0" cx="25" cy="25" r="24.3"/>
	<path class="st1" d="M25,49.5c-13.5,0-24.5-11-24.5-24.5S11.5,0.5,25,0.5s24.5,11,24.5,24.5S38.5,49.5,25,49.5z M25,1
		C11.8,1,1,11.8,1,25s10.8,24,24,24s24-10.8,24-24S38.2,1,25,1z"/>
</g>
<circle class="st2" cx="25" cy="25" r="19.4"/>
<g>
	<path class="st3" d="M12.8,24.4V33c0,1.8,1.5,3.1,3.1,3.1h17.9c1.8,0,3.1-1.5,3.1-3.1v-8.6C37.2,24.4,12.8,24.4,12.8,24.4z"/>
	<path class="st3" d="M37.2,22.6V22c0-1.8-1.5-3.1-3.1-3.1H16.1c-1.8,0-3.1,1.5-3.1,3.1v0.7H37.2z"/>
	<path class="st3" d="M29.9,19.7h-9.8c-0.5,0-1-0.4-1-1v-2.6c0-1.8,1.5-3.2,3.2-3.2h5.4c1.8,0,3.2,1.5,3.2,3.2v2.6
		C30.9,19.3,30.5,19.7,29.9,19.7z M21,17.8h7.9v-1.7c0-0.7-0.6-1.3-1.3-1.3h-5.4c-0.7,0-1.3,0.6-1.3,1.3C21,16.2,21,17.8,21,17.8z"
		/>
	<g>
		<rect x="23.9" y="26.5" class="st2" width="2.3" height="6.2"/>
		<rect x="22" y="28.4" class="st2" width="6.2" height="2.3"/>
	</g>
</g>
</svg>
