<?xml version="1.0" encoding="utf-8"?>
<!-- Generator: Adobe Illustrator 28.0.0, SVG Export Plug-In . SVG Version: 6.00 Build 0)  -->
<svg version="1.1" id="Capa_1" xmlns="http://www.w3.org/2000/svg" xmlns:xlink="http://www.w3.org/1999/xlink" x="0px" y="0px"
	 viewBox="0 0 50 50" style="enable-background:new 0 0 50 50;" xml:space="preserve">
<style type="text/css">
	.st0{fill:#FFFFFF;}
	.st1{fill:#E8E8E8;}
	.st2{fill:#F3DC2A;}
	.st3{fill:#E54E59;}
</style>
<g>
	<g>
		<circle class="st0" cx="25" cy="25" r="24.3"/>
		<path class="st1" d="M25,49.5c-13.5,0-24.5-11-24.5-24.5S11.5,0.5,25,0.5s24.5,11,24.5,24.5S38.5,49.5,25,49.5z M25,1
			C11.8,1,1,11.8,1,25s10.8,24,24,24s24-10.8,24-24S38.2,1,25,1z"/>
	</g>
	<circle class="st2" cx="25" cy="25" r="19.4"/>
	<g>
		<path class="st3" d="M37.2,17.7L34,12.9H16l-3.1,4.8v2.4l0,0l0,0c0,1.2,1.1,2.2,2.4,2.2s2.5-1,2.5-2.2c0,1.2,1.1,2.2,2.4,2.2
			s2.5-1,2.5-2.2c0,1.2,1.1,2.2,2.4,2.2s2.5-1,2.5-2.2c0,1.2,1.1,2.2,2.5,2.2s2.4-1,2.4-2.2c0,1.2,1.1,2.2,2.5,2.2s2.5-1,2.5-2.2
			l0,0l0,0v-2.4H37.2z"/>
		<path class="st3" d="M32.3,22.7c-0.7,0.6-1.5,0.9-2.5,0.9s-1.8-0.3-2.5-0.9c-0.7,0.6-1.5,0.9-2.4,0.9c-1,0-1.8-0.3-2.5-0.9
			c-0.7,0.6-1.5,0.9-2.5,0.9c-1,0-1.8-0.3-2.4-0.9c-0.7,0.6-1.5,0.9-2.5,0.9c-0.5,0-1-0.1-1.4-0.3v11.4h14.4v-7.8h5.3v7.8H36V23.3
			c-0.4,0.2-0.9,0.3-1.4,0.3C33.8,23.6,32.9,23.2,32.3,22.7L32.3,22.7z M24.1,32.1h-7.6V27h7.6C24.1,27,24.1,32.1,24.1,32.1z"/>
		<polygon class="st3" points="29.1,34.7 28.3,36.3 28.3,37 33.6,37 33.6,36.3 32.8,34.7 		"/>
	</g>
</g>
</svg>
