<?xml version="1.0" encoding="UTF-8"?>
<svg id="Capa_1" data-name="Capa 1" xmlns="http://www.w3.org/2000/svg" viewBox="0 0 50 50">
  <defs>
    <style>
      .cls-1 {
        fill: #e54e59;
      }

      .cls-1, .cls-2 {
        stroke-width: 0px;
      }

      .cls-2 {
        fill: #f3dc2a;
      }

      .cls-3 {
        fill: #fff;
        stroke: #e8e8e8;
        stroke-linecap: round;
        stroke-linejoin: round;
        stroke-width: .5px;
      }
    </style>
  </defs>
  <circle class="cls-3" cx="25" cy="25" r="25"/>
  <circle class="cls-2" cx="25" cy="25" r="20"/>
  <g>
    <path class="cls-1" d="m37.5,17.54l-3.24-4.91H15.74l-3.24,4.91v2.57h0s0,0,0,0c0,1.23,1.12,2.23,2.5,2.23s2.5-1,2.5-2.23c0,1.23,1.12,2.23,2.5,2.23s2.5-1,2.5-2.23c0,1.23,1.12,2.23,2.5,2.23s2.5-1,2.5-2.23c0,1.23,1.12,2.23,2.5,2.23s2.5-1,2.5-2.23c0,1.23,1.12,2.23,2.5,2.23s2.5-1,2.5-2.23c0,0,0,0,0,0h0v-2.57Z"/>
    <path class="cls-1" d="m32.5,22.67c-.66.56-1.54.9-2.5.9s-1.84-.34-2.5-.9c-.66.56-1.54.9-2.5.9s-1.84-.34-2.5-.9c-.66.56-1.54.9-2.5.9s-1.84-.34-2.5-.9c-.66.56-1.54.9-2.5.9-.52,0-1.01-.1-1.46-.28v11.75h14.86v-8.06h5.47v8.06h2.6v-11.75c-.45.18-.94.28-1.46.28-.96,0-1.84-.34-2.5-.9Zm-8.45,9.63h-7.92v-5.32h7.92v5.32Z"/>
    <polygon class="cls-1" points="29.22 35.03 28.41 36.65 28.41 37.36 33.92 37.36 33.92 36.65 33.11 35.03 29.22 35.03"/>
  </g>
</svg>