<?xml version="1.0" encoding="utf-8"?>
<!-- Generator: Adobe Illustrator 28.0.0, SVG Export Plug-In . SVG Version: 6.00 Build 0)  -->
<svg version="1.1" id="Capa_1" xmlns="http://www.w3.org/2000/svg" xmlns:xlink="http://www.w3.org/1999/xlink" x="0px" y="0px"
	 viewBox="0 0 50 50" style="enable-background:new 0 0 50 50;" xml:space="preserve">
<style type="text/css">
	.st0{fill:#FFFFFF;stroke:#E8E8E8;stroke-width:0.5;stroke-linecap:round;stroke-linejoin:round;}
	.st1{fill:#F3DC2A;}
	.st2{fill:#E54E59;}
</style>
<circle class="st0" cx="25" cy="25" r="25"/>
<circle class="st1" cx="25" cy="25" r="20"/>
<g>
	<path class="st2" d="M30.6,22.3H18.1c-3.1,0-5.6,2.5-5.6,5.6s2.5,5.6,5.6,5.6c2,0,3.8-1.1,4.8-2.6h3c1,1.6,2.8,2.6,4.8,2.6
		c3.1,0,5.6-2.5,5.6-5.6S33.7,22.3,30.6,22.3L30.6,22.3z M20.5,27.8c0,0.5-0.4,0.9-0.9,0.9h-0.9v0.9c0,0.5-0.4,0.9-0.9,0.9h-0.1
		c-0.5,0-0.9-0.4-0.9-0.9v-0.9h-0.9c-0.5,0-0.9-0.4-0.9-0.9v-0.1c0-0.5,0.4-0.9,0.9-0.9h0.9v-0.9c0-0.5,0.4-0.9,0.9-0.9h0.1
		c0.5,0,0.9,0.4,0.9,0.9v0.9h0.9c0.5,0,0.9,0.4,0.9,0.9V27.8z M28.7,28.7c-0.5,0-1-0.4-1-1s0.4-1,1-1s1,0.4,1,1S29.3,28.7,28.7,28.7
		z M30.6,30.6c-0.5,0-1-0.4-1-1s0.4-1,1-1s1,0.4,1,1S31.1,30.6,30.6,30.6z M30.6,26.8c-0.5,0-1-0.4-1-1s0.4-1,1-1s1,0.4,1,1
		S31.1,26.8,30.6,26.8z M32.5,28.7c-0.5,0-1-0.4-1-1s0.4-1,1-1s1,0.4,1,1S33.1,28.7,32.5,28.7z"/>
	<rect x="21.5" y="21.1" class="st2" width="5.6" height="1.1"/>
	<path class="st2" d="M41.5,13.7h-0.4c-2.5,0-3.1,2.9-3.1,3l0,0.1c0,0.1-0.8,1.8-2.8,2.4c-1.5,0.5-3.3,0.3-5.3-0.8
		c-1.4-0.8-2.6-0.9-3.4-0.4c-1.5,0.8-1.6,3.3-1.6,3.3l-1-0.1c0-0.1,0.2-3,2.1-4.1c1.1-0.7,2.6-0.5,4.4,0.4c1.7,0.9,3.2,1.2,4.5,0.7
		c1.4-0.5,2.1-1.6,2.2-1.9c0.3-1.3,1.4-3.5,3.7-3.7L41.5,13.7z"/>
</g>
</svg>
