<?xml version="1.0" encoding="UTF-8"?>
<svg id="Capa_1" data-name="Capa 1" xmlns="http://www.w3.org/2000/svg" viewBox="0 0 50 50">
  <defs>
    <style>
      .cls-1 {
        fill: none;
        stroke: #fff;
        stroke-miterlimit: 10;
      }

      .cls-2 {
        fill: #e54e59;
      }

      .cls-2, .cls-3, .cls-4 {
        stroke-width: 0px;
      }

      .cls-3 {
        fill: #f3dc2a;
      }

      .cls-4, .cls-5 {
        fill: #fff;
      }

      .cls-5 {
        stroke: #e8e8e8;
        stroke-linecap: round;
        stroke-linejoin: round;
        stroke-width: .5px;
      }
    </style>
  </defs>
  <circle class="cls-5" cx="25" cy="25" r="25"/>
  <circle class="cls-3" cx="25" cy="25" r="20"/>
  <g>
    <path class="cls-2" d="m30.58,22.29h-12.49c-3.09,0-5.59,2.49-5.59,5.56s2.5,5.56,5.59,5.56c2.02,0,3.78-1.06,4.76-2.65h2.96c.98,1.59,2.75,2.65,4.76,2.65,3.09,0,5.59-2.49,5.59-5.56s-2.5-5.56-5.59-5.56Zm-10.12,5.51c0,.51-.41.92-.92.92h-.87v.87c0,.51-.41.92-.92.92h-.15c-.51,0-.92-.41-.92-.92v-.87h-.87c-.51,0-.92-.41-.92-.92v-.15c0-.51.41-.92.92-.92h.87v-.87c0-.51.41-.92.92-.92h.15c.51,0,.92.41.92.92v.87h.87c.51,0,.92.41.92.92v.15Zm8.28.89c-.53,0-.96-.43-.96-.96s.43-.96.96-.96.96.43.96.96-.43.96-.96.96Zm1.88,1.91c-.53,0-.96-.43-.96-.96s.43-.96.96-.96.96.43.96.96-.43.96-.96.96Zm0-3.81c-.53,0-.96-.43-.96-.96s.43-.96.96-.96.96.43.96.96-.43.96-.96.96Zm1.93,1.91c-.53,0-.96-.43-.96-.96s.43-.96.96-.96.96.43.96.96-.43.96-.96.96Z"/>
    <rect class="cls-4" x="21.51" y="21.14" width="5.65" height="1.15"/>
    <path class="cls-1" d="m24.33,21.31s.33-6.19,5.77-3.31,7.4-1.41,7.4-1.41c0,0,.66-3.41,3.62-3.43h1.37"/>
  </g>
</svg>