<?xml version="1.0" encoding="utf-8"?>
<!-- Generator: Adobe Illustrator 28.0.0, SVG Export Plug-In . SVG Version: 6.00 Build 0)  -->
<svg version="1.1" id="Capa_1" xmlns="http://www.w3.org/2000/svg" xmlns:xlink="http://www.w3.org/1999/xlink" x="0px" y="0px"
	 viewBox="0 0 50 50" style="enable-background:new 0 0 50 50;" xml:space="preserve">
<style type="text/css">
	.st0{fill:#FFFFFF;}
	.st1{fill:#E8E8E8;}
	.st2{fill:#F3DC2A;}
	.st3{fill:#E54E59;}
</style>
<g>
	<circle class="st0" cx="25" cy="25" r="24.3"/>
	<path class="st1" d="M25,49.5c-13.5,0-24.5-11-24.5-24.5S11.5,0.5,25,0.5s24.5,11,24.5,24.5S38.5,49.5,25,49.5z M25,1
		C11.8,1,1,11.8,1,25s10.8,24,24,24s24-10.8,24-24S38.2,1,25,1z"/>
</g>
<circle class="st2" cx="25" cy="25" r="19.4"/>
<g>
	<path class="st3" d="M30.4,22.4H18.3c-3,0-5.4,2.4-5.4,5.4s2.4,5.4,5.4,5.4c2,0,3.6-1,4.6-2.5h2.8c1,1.6,2.6,2.5,4.6,2.5
		c3,0,5.4-2.4,5.4-5.4S33.4,22.4,30.4,22.4L30.4,22.4z M20.6,27.7c0,0.5-0.4,0.9-0.9,0.9h-0.9v0.9c0,0.5-0.4,0.9-0.9,0.9h-0.1
		c-0.5,0-0.9-0.4-0.9-0.9v-0.9h-0.9c-0.5,0-0.9-0.4-0.9-0.9v-0.1c0-0.5,0.4-0.9,0.9-0.9H17v-0.9c0-0.5,0.4-0.9,0.9-0.9h0.1
		c0.5,0,0.9,0.4,0.9,0.9v0.9h0.9C20.2,26.8,20.6,27.2,20.6,27.7L20.6,27.7z M28.6,28.6c-0.5,0-1-0.4-1-1c0-0.5,0.4-1,1-1
		c0.6,0,1,0.4,1,1C29.6,28.1,29.1,28.6,28.6,28.6z M30.5,30.4c-0.5,0-1-0.4-1-1c0-0.6,0.4-1,1-1c0.6,0,1,0.4,1,1
		C31.5,30,31,30.4,30.5,30.4z M30.5,26.8c-0.5,0-1-0.4-1-1c0-0.5,0.4-1,1-1c0.6,0,1,0.4,1,1C31.4,26.3,31,26.8,30.5,26.8z
		 M32.3,28.6c-0.5,0-1-0.4-1-1c0-0.6,0.4-1,1-1c0.5,0,1,0.4,1,1C33.3,28.2,32.8,28.6,32.3,28.6z"/>
	<rect x="21.6" y="21.3" class="st3" width="5.5" height="1.1"/>
	<path class="st3" d="M24.8,21.5l-1-0.1c0-0.1,0.2-2.9,2.1-4c1.1-0.6,2.5-0.5,4.2,0.4c1.7,0.9,3.1,1.1,4.4,0.7
		c0.4-0.1,0.8-0.3,1-0.6c0.6-0.5,1-1.1,1.3-1.9c0.5-1.3,1.2-3,3.4-3l0.7,1h-0.3c-2.5,0-3,2.6-3,2.7L37.6,17c0,0.1-0.8,1.8-2.7,2.4
		c-1.5,0.5-3.2,0.3-5.2-0.8c-1.4-0.8-2.5-0.9-3.3-0.4C25,19,24.8,21.4,24.8,21.5z"/>
</g>
</svg>
