<?xml version="1.0" encoding="utf-8"?>
<!-- Generator: Adobe Illustrator 28.0.0, SVG Export Plug-In . SVG Version: 6.00 Build 0)  -->
<svg version="1.1" id="Capa_1" xmlns="http://www.w3.org/2000/svg" xmlns:xlink="http://www.w3.org/1999/xlink" x="0px" y="0px"
	 viewBox="0 0 50 50" style="enable-background:new 0 0 50 50;" xml:space="preserve">
<style type="text/css">
	.st0{fill:#FFFFFF;}
	.st1{fill:#E8E8E8;}
	.st2{fill:#F3DC2A;}
	.st3{fill-rule:evenodd;clip-rule:evenodd;fill:#E54E59;}
</style>
<g>
	<g>
		<circle class="st0" cx="25" cy="25" r="24.2"/>
		<path class="st1" d="M25,49.5C11.6,49.5,0.5,38.4,0.5,25S11.6,0.5,25,0.5S49.5,11.6,49.5,25S38.4,49.5,25,49.5z M25,1
			C11.8,1,1,11.8,1,25s10.8,24,24,24s24-10.8,24-24S38.2,1,25,1z"/>
	</g>
	<circle class="st2" cx="25" cy="25" r="19.4"/>
	<path class="st3" d="M31.2,27.7l1.4-0.7l0,0v-3.4l-1.4,0.7L31.2,27.7L31.2,27.7z M17,23.5V27c2.4,1.2,4.8,2.3,7.2,3.5
		c0.4,0.1,0.8,0.1,1.2,0l4.4-2.2v-3.5l-5,2.5L17,23.5L17,23.5z M30.9,23.2L30.9,23.2l-4.8-2.8c0-0.1,0-0.2,0-0.3
		c0-0.6-0.5-1.1-1.1-1.1s-1.1,0.5-1.1,1.1c0,0.6,0.5,1.1,1.1,1.1c0.3,0,0.6-0.1,0.8-0.3l4.7,2.6L30.9,23.2L30.9,23.2L30.9,23.2z
		 M37.2,20.3l-12.3-6l-12,5.7v0.5l12,5.7l5-2.5v-0.2l-4.1-2.2c-0.2,0.2-0.5,0.2-0.8,0.2c-0.8,0-1.5-0.7-1.5-1.5s0.7-1.5,1.5-1.5
		s1.5,0.7,1.5,1.5v0.1l4.8,2.7L37.2,20.3L37.2,20.3L37.2,20.3z M30.9,23.2l0.1,4.3c0.3,0.1,0.4,0.3,0.4,0.6c0,0.3-0.2,0.5-0.4,0.6
		h0.3l0.6,6.9h-2.4l0.6-6.9h0.3c-0.2-0.1-0.4-0.3-0.4-0.6s0.2-0.5,0.4-0.6l-0.1-4L30.9,23.2L30.9,23.2L30.9,23.2z"/>
</g>
</svg>
