<?xml version="1.0" encoding="UTF-8"?>
<svg id="Capa_1" data-name="Capa 1" xmlns="http://www.w3.org/2000/svg" viewBox="0 0 50 50">
  <defs>
    <style>
      .cls-1 {
        fill: #e54e59;
        fill-rule: evenodd;
      }

      .cls-1, .cls-2 {
        stroke-width: 0px;
      }

      .cls-2 {
        fill: #f3dc2a;
      }

      .cls-3 {
        fill: #fff;
        stroke: #e8e8e8;
        stroke-linecap: round;
        stroke-linejoin: round;
        stroke-width: .5px;
      }
    </style>
  </defs>
  <circle class="cls-3" cx="25" cy="25" r="25"/>
  <circle class="cls-2" cx="25" cy="25" r="20"/>
  <path class="cls-1" d="m31.45,27.72l1.4-.67s.01-.03.02-.05v-3.51l-1.39.67-.03,3.56h0Zm-14.68-4.23v3.55c2.49,1.19,4.97,2.38,7.45,3.57.43.15.84.13,1.25,0l4.58-2.21v-3.55l-5.23,2.52-8.05-3.88h0Zm14.37-.29l-.12-.08-4.91-2.71c.03-.1.04-.21.04-.32,0-.64-.52-1.15-1.15-1.15s-1.15.52-1.15,1.15.52,1.15,1.15,1.15c.3,0,.58-.12.78-.31l4.85,2.69.5-.43h0Zm6.37-3.1l-12.68-6.23-12.32,5.93v.55l12.32,5.93,5.23-2.56v-.16l-4.23-2.23c-.24.16-.53.25-.82.25-.82,0-1.49-.67-1.49-1.49s.67-1.49,1.49-1.49,1.49.67,1.49,1.49c0,.04,0,.09,0,.13l5,2.8,6.01-2.94h0Zm-6.37,3.1l.08,4.53c.26.1.44.35.44.64,0,.27-.16.51-.4.62h.34l.62,7.17h-2.49l.62-7.17h.34c-.23-.11-.4-.34-.4-.62s.17-.52.41-.62l-.07-4.11.5-.43h0Z"/>
</svg>