<?xml version="1.0" encoding="utf-8"?>
<!-- Generator: Adobe Illustrator 28.0.0, SVG Export Plug-In . SVG Version: 6.00 Build 0)  -->
<svg version="1.1" id="Capa_1" xmlns="http://www.w3.org/2000/svg" xmlns:xlink="http://www.w3.org/1999/xlink" x="0px" y="0px"
	 viewBox="0 0 450 74.8" style="enable-background:new 0 0 450 74.8;" xml:space="preserve">
<style type="text/css">
	.st0{fill:#E33A60;}
	.st1{fill:#5558C4;}
	.st2{fill:none;}
</style>
<g>
	<path class="st0" d="M65.8,2.9c-12.1,0.1-21.7,9.9-21.5,22c0.1,4.3,1.4,8.3,3.6,11.6l0.8,1.1l16.7,23.5c0.3,0.4,0.8,0.4,1.1,0
		l16.7-23.5l0.8-1.1c2.3-3.4,3.6-7.5,3.6-12C87.6,12.6,77.9,2.8,65.8,2.9z M66,34.1c-5.3,0-9.5-4.3-9.5-9.5c0-5.3,4.3-9.5,9.5-9.5
		s9.5,4.3,9.5,9.5C75.5,29.8,71.2,34.1,66,34.1z"/>
	<path class="st1" d="M131.9,33.2v9.3c0,0.4-0.3,0.7-0.7,0.7c-2.8-0.3-5.7-0.5-8.5-0.5c-16,0-30.9,4.8-43.3,12.9
		c-0.7,0.4-1.4-0.5-0.8-1c14.1-12.8,32.5-20.9,52.7-22C131.6,32.5,131.9,32.8,131.9,33.2z"/>
	<path class="st1" d="M53.4,54.6c0.6,0.5-0.1,1.5-0.8,1C40.1,47.4,25.3,42.7,9.3,42.7c-2.9,0-5.7,0.2-8.5,0.5
		c-0.4,0-0.7-0.3-0.7-0.7v-9.3c0-0.4,0.3-0.7,0.7-0.7C20.9,33.7,39.3,41.8,53.4,54.6z"/>
	<path class="st1" d="M64.5,73.5h-6.8c-0.2,0-0.3-0.1-0.5-0.2C45,61.1,28.1,53.6,9.4,53.6c-0.8,0-1.6,0-2.5,0
		c-0.4,0-0.6,0.3-0.6,0.7v18.6c0,0.4-0.3,0.7-0.7,0.7h-5c-0.4,0-0.7-0.3-0.7-0.7V48.5c0-0.3,0.2-0.6,0.6-0.7
		c1.9-0.2,3.8-0.4,5.7-0.4c1,0,2-0.1,3-0.1c22.2,0,42.1,9.7,55.7,25.1C65.4,72.8,65.1,73.5,64.5,73.5z"/>
	<path class="st1" d="M131.9,48.5v24.4c0,0.4-0.3,0.7-0.7,0.7h-5c-0.4,0-0.7-0.3-0.7-0.7V54.3c0-0.4-0.3-0.6-0.6-0.7
		c-0.8,0-1.6,0-2.4,0c-18.7,0-35.6,7.5-47.9,19.7c-0.1,0.1-0.3,0.2-0.5,0.2h-6.9c-0.6,0-0.9-0.7-0.5-1.1
		c13.6-15.4,33.5-25.1,55.7-25.1c1,0,2,0,3,0.1c1.9,0.1,3.8,0.2,5.7,0.4C131.7,47.9,131.9,48.1,131.9,48.5z"/>
	<g>
		<path class="st0" d="M159,60.6c0,4.1,2.4,6.1,6,6.1c3.6,0,6.5-2.1,6.5-6.1V41.9h-7v-7.5h14.3v39.2h-5.1l-0.4-3.1
			c-2.3,2.5-5.6,4.3-9.7,4.3c-7.2,0-12.5-5.3-12.5-14V15.6c0-8.7,6-14,14.3-14c8.3,0,13.8,5.3,13.8,14V18h-7.7v-2.2
			c0-4.1-2.4-6.1-6-6.1c-3.8,0-6.3,2.1-6.3,6.1V60.6z"/>
		<path class="st0" d="M194.2,56.2v4.4c0,3.8,2.4,5.9,5.8,5.9c3.4,0,5.9-2.1,5.9-5.9v-3.5l7.3-1.9v5.7c0,8.3-6,13.4-13.4,13.4
			c-7.4,0-13.3-5.1-13.3-13.4V31c0-8.3,5.9-13.4,13.4-13.4c6.5,0,13.5,3.5,13.5,14.5c0,6.8-2.7,11.5-8.8,16.6
			C201.9,51,198.5,53.5,194.2,56.2z M194.2,48.4c2.6-1.7,4.8-3.3,6.2-4.7c3.7-3.4,5.1-6.6,5.1-11c0-5.7-2.7-7.7-5.9-7.7
			c-3.4,0-5.5,2.3-5.5,6.3V48.4z"/>
		<path class="st0" d="M247.7,60.9c0,8.3-6.1,13.4-13.7,13.4c-7.7,0-13.7-5.1-13.7-13.4V31c0-8.3,6-13.4,13.7-13.4
			c7.6,0,13.7,5.1,13.7,13.4V60.9z M228,60.4c0,3.8,2.5,5.9,6,5.9s5.9-2.1,5.9-5.9v-29c0-3.8-2.4-5.9-5.9-5.9s-6,2.1-6,5.9V60.4z"/>
		<path class="st1" d="M269.9,2.9c8.7,0,14,5.2,14,14v9.8c0,5.8-1.7,8.8-5.1,10.2c3.8,1.4,6,4.6,6,10.8V59c0,9.3-5.4,14.5-14.1,14.5
			h-15.1V2.9H269.9z M263.6,33.6h5.8c4.6,0,6.3-1.7,6.3-6.6v-9.1c0-4.4-2-7.1-6.5-7.1h-5.6V33.6z M263.6,65.7h6.3
			c4.4,0,6.5-2.4,6.5-7.2V47.6c0-5.1-1.7-6.9-6.5-6.9h-6.3V65.7z"/>
		<path class="st1" d="M318.7,60.9c0,8.3-6.1,13.4-13.7,13.4c-7.7,0-13.7-5.1-13.7-13.4V31c0-8.3,6-13.4,13.7-13.4
			c7.6,0,13.7,5.1,13.7,13.4V60.9z M299.1,60.4c0,3.8,2.5,5.9,6,5.9s5.9-2.1,5.9-5.9v-29c0-3.8-2.4-5.9-5.9-5.9s-6,2.1-6,5.9V60.4z"
			/>
		<path class="st1" d="M353.6,60.9c0,8.3-6.1,13.4-13.7,13.4c-7.7,0-13.7-5.1-13.7-13.4V31c0-8.3,6-13.4,13.7-13.4
			c7.6,0,13.7,5.1,13.7,13.4V60.9z M333.9,60.4c0,3.8,2.5,5.9,6,5.9s5.9-2.1,5.9-5.9v-29c0-3.8-2.4-5.9-5.9-5.9s-6,2.1-6,5.9V60.4z"
			/>
		<path class="st1" d="M388.8,18.4L376.2,41l13.7,32.6h-8.3l-12.2-29.7v29.7h-8V2l8-2v38.9l11.2-20.5H388.8z"/>
		<path class="st1" d="M400.5,56.2v4.4c0,3.8,2.4,5.9,5.8,5.9c3.4,0,5.9-2.1,5.9-5.9v-3.5l7.3-1.9v5.7c0,8.3-6,13.4-13.4,13.4
			c-7.4,0-13.3-5.1-13.3-13.4V31c0-8.3,5.9-13.4,13.4-13.4c6.5,0,13.5,3.5,13.5,14.5c0,6.8-2.7,11.5-8.8,16.6
			C408.2,51,404.8,53.5,400.5,56.2z M400.5,48.4c2.6-1.7,4.8-3.3,6.2-4.7c3.7-3.4,5.1-6.6,5.1-11c0-5.7-2.7-7.7-5.9-7.7
			c-3.4,0-5.5,2.3-5.5,6.3V48.4z"/>
		<path class="st1" d="M447.7,27.2c-1.8-1.1-3.5-1.5-5.1-1.5c-3.1,0-5.6,1.6-7.7,4.7v43.2h-8V18.4h5.5L434,23
			c2.3-3.5,5.4-5.3,9.3-5.3c2.4,0,4.8,0.7,6.7,2.3L447.7,27.2z"/>
	</g>
	<g>
		<path class="st2" d="M66,62"/>
	</g>
</g>
</svg>
