<?xml version="1.0" encoding="utf-8"?>
<!-- Generator: Adobe Illustrator 28.0.0, SVG Export Plug-In . SVG Version: 6.00 Build 0)  -->
<svg version="1.1" id="Capa_1" xmlns="http://www.w3.org/2000/svg" xmlns:xlink="http://www.w3.org/1999/xlink" x="0px" y="0px"
	 viewBox="0 0 250 41.5" style="enable-background:new 0 0 250 41.5;" xml:space="preserve">
<style type="text/css">
	.st0{fill:#FFFFFF;}
</style>
<g>
	<path class="st0" d="M36.6,1.6c-6.7,0-12.1,5.5-12,12.2c0,2.4,0.8,4.6,2,6.4l0.4,0.6L36.4,34c0.1,0.2,0.5,0.2,0.6,0l9.3-13.1
		l0.4-0.6c1.3-1.9,2-4.2,2-6.6C48.7,7,43.3,1.6,36.6,1.6z M36.6,18.9c-2.9,0-5.3-2.4-5.3-5.3c0-2.9,2.4-5.3,5.3-5.3s5.3,2.4,5.3,5.3
		C41.9,16.6,39.6,18.9,36.6,18.9z"/>
	<path class="st0" d="M73.3,18.4v5.2c0,0.2-0.2,0.4-0.4,0.4c-1.6-0.2-3.1-0.3-4.7-0.3c-8.9,0-17.2,2.6-24.1,7.2
		c-0.4,0.2-0.8-0.3-0.4-0.6c7.8-7.1,18-11.6,29.3-12.2C73.1,18.1,73.3,18.2,73.3,18.4z"/>
	<path class="st0" d="M29.7,30.3c0.3,0.3-0.1,0.8-0.4,0.6c-6.9-4.5-15.2-7.2-24.1-7.2c-1.6,0-3.2,0.1-4.7,0.3C0.2,24,0,23.8,0,23.6
		v-5.2c0-0.2,0.2-0.4,0.4-0.4C11.6,18.7,21.8,23.2,29.7,30.3z"/>
	<path class="st0" d="M35.8,40.8h-3.8c-0.1,0-0.2,0-0.3-0.1c-6.8-6.8-16.2-11-26.6-11c-0.5,0-0.9,0-1.4,0c-0.2,0-0.4,0.2-0.4,0.4
		v10.3c0,0.2-0.2,0.4-0.4,0.4H0.4c-0.2,0-0.4-0.2-0.4-0.4V26.9c0-0.2,0.1-0.3,0.3-0.4c1-0.1,2.1-0.2,3.2-0.2c0.6,0,1.1,0,1.7,0
		c12.3,0,23.4,5.4,30.9,14C36.3,40.5,36.2,40.8,35.8,40.8z"/>
	<path class="st0" d="M73.3,26.9v13.5c0,0.2-0.2,0.4-0.4,0.4h-2.8c-0.2,0-0.4-0.2-0.4-0.4V30.2c0-0.2-0.2-0.4-0.4-0.4
		c-0.4,0-0.9,0-1.3,0c-10.4,0-19.8,4.2-26.6,11c-0.1,0.1-0.2,0.1-0.3,0.1h-3.8c-0.3,0-0.5-0.4-0.3-0.6c7.6-8.6,18.6-14,30.9-14
		c0.6,0,1.1,0,1.7,0c1.1,0,2.1,0.1,3.2,0.2C73.2,26.6,73.3,26.7,73.3,26.9z"/>
	<g>
		<path class="st0" d="M88.3,33.7c0,2.3,1.4,3.4,3.4,3.4c2,0,3.6-1.2,3.6-3.4V23.3h-3.9v-4.2h7.9v21.8h-2.9l-0.2-1.7
			c-1.3,1.4-3.1,2.4-5.4,2.4c-4,0-7-3-7-7.8V8.7c0-4.8,3.3-7.8,7.9-7.8c4.6,0,7.7,3,7.7,7.8V10h-4.3V8.8c0-2.3-1.4-3.4-3.4-3.4
			c-2.1,0-3.5,1.2-3.5,3.4V33.7z"/>
		<path class="st0" d="M107.9,31.2v2.5c0,2.1,1.4,3.3,3.2,3.3c1.9,0,3.3-1.2,3.3-3.3v-2l4.1-1.1v3.2c0,4.6-3.3,7.4-7.5,7.4
			c-4.1,0-7.4-2.8-7.4-7.4V17.2c0-4.6,3.3-7.4,7.4-7.4c3.6,0,7.5,2,7.5,8.1c0,3.8-1.5,6.4-4.9,9.2C112.2,28.3,110.3,29.7,107.9,31.2
			z M107.9,26.9c1.5-1,2.7-1.9,3.5-2.6c2.1-1.9,2.9-3.7,2.9-6.1c0-3.2-1.5-4.3-3.3-4.3c-1.9,0-3.1,1.3-3.1,3.5V26.9z"/>
		<path class="st0" d="M137.6,33.8c0,4.6-3.4,7.4-7.6,7.4c-4.3,0-7.6-2.8-7.6-7.4V17.2c0-4.6,3.4-7.4,7.6-7.4c4.2,0,7.6,2.8,7.6,7.4
			V33.8z M126.7,33.6c0,2.1,1.4,3.3,3.3,3.3c1.9,0,3.3-1.2,3.3-3.3V17.5c0-2.1-1.4-3.3-3.3-3.3c-1.9,0-3.3,1.2-3.3,3.3V33.6z"/>
		<path class="st0" d="M149.9,1.6c4.8,0,7.8,2.9,7.8,7.8v5.5c0,3.2-1,4.9-2.9,5.7c2.1,0.8,3.3,2.6,3.3,6v6.3c0,5.2-3,8.1-7.8,8.1
			H142V1.6H149.9z M146.5,18.6h3.2c2.6,0,3.5-1,3.5-3.7V9.9c0-2.5-1.1-4-3.6-4h-3.1V18.6z M146.5,36.5h3.5c2.5,0,3.6-1.4,3.6-4v-6
			c0-2.8-1-3.9-3.6-3.9h-3.5V36.5z"/>
		<path class="st0" d="M177.1,33.8c0,4.6-3.4,7.4-7.6,7.4c-4.3,0-7.6-2.8-7.6-7.4V17.2c0-4.6,3.4-7.4,7.6-7.4c4.2,0,7.6,2.8,7.6,7.4
			V33.8z M166.2,33.6c0,2.1,1.4,3.3,3.3,3.3s3.3-1.2,3.3-3.3V17.5c0-2.1-1.4-3.3-3.3-3.3s-3.3,1.2-3.3,3.3V33.6z"/>
		<path class="st0" d="M196.4,33.8c0,4.6-3.4,7.4-7.6,7.4c-4.3,0-7.6-2.8-7.6-7.4V17.2c0-4.6,3.4-7.4,7.6-7.4c4.2,0,7.6,2.8,7.6,7.4
			V33.8z M185.5,33.6c0,2.1,1.4,3.3,3.3,3.3c1.9,0,3.3-1.2,3.3-3.3V17.5c0-2.1-1.4-3.3-3.3-3.3c-1.9,0-3.3,1.2-3.3,3.3V33.6z"/>
		<path class="st0" d="M216,10.2l-7,12.5l7.6,18.1H212l-6.8-16.5v16.5h-4.5V1.1l4.5-1.1v21.6l6.2-11.4H216z"/>
		<path class="st0" d="M222.5,31.2v2.5c0,2.1,1.4,3.3,3.2,3.3c1.9,0,3.3-1.2,3.3-3.3v-2l4.1-1.1v3.2c0,4.6-3.3,7.4-7.5,7.4
			c-4.1,0-7.4-2.8-7.4-7.4V17.2c0-4.6,3.3-7.4,7.4-7.4c3.6,0,7.5,2,7.5,8.1c0,3.8-1.5,6.4-4.9,9.2C226.8,28.3,224.9,29.7,222.5,31.2
			z M222.5,26.9c1.5-1,2.7-1.9,3.5-2.6c2.1-1.9,2.9-3.7,2.9-6.1c0-3.2-1.5-4.3-3.3-4.3c-1.9,0-3.1,1.3-3.1,3.5V26.9z"/>
		<path class="st0" d="M248.7,15.1c-1-0.6-2-0.9-2.8-0.9c-1.7,0-3.1,0.9-4.3,2.6v24h-4.5V10.2h3.1l0.9,2.6c1.3-2,3-3,5.2-3
			c1.4,0,2.7,0.4,3.7,1.3L248.7,15.1z"/>
	</g>
	<path class="st0" d="M36.7,34.4"/>
</g>
</svg>
