<?xml version="1.0" encoding="utf-8"?>
<!-- Generator: Adobe Illustrator 28.0.0, SVG Export Plug-In . SVG Version: 6.00 Build 0)  -->
<svg version="1.1" id="Capa_1" xmlns="http://www.w3.org/2000/svg" xmlns:xlink="http://www.w3.org/1999/xlink" x="0px" y="0px"
	 viewBox="0 0 50 50" style="enable-background:new 0 0 50 50;" xml:space="preserve">
<style type="text/css">
	.st0{fill:#FFFFFF;}
	.st1{fill:#E8E8E8;}
	.st2{fill:#F3DC2A;}
	.st3{fill:#E54E59;}
</style>
<g>
	<circle class="st0" cx="25" cy="25" r="24.3"/>
	<path class="st1" d="M25,49.5c-13.5,0-24.5-11-24.5-24.5S11.5,0.5,25,0.5s24.5,11,24.5,24.5S38.5,49.5,25,49.5z M25,1
		C11.8,1,1,11.8,1,25s10.8,24,24,24s24-10.8,24-24S38.2,1,25,1z"/>
</g>
<circle class="st2" cx="25" cy="25" r="19.4"/>
<path class="st3" d="M36.8,16.8l-2.8,2.8c-0.6,0.6-1.6,0.6-2.2,0l-1.4-1.4c-0.6-0.6-0.6-1.6,0-2.2l2.8-2.8c-2.1-0.8-4.5-0.3-6.2,1.4
	c-1.7,1.7-2.2,4-1.4,6.2L13.6,32.8c-1,1-1,2.5,0,3.5l0,0c1,1,2.5,1,3.5,0l12.2-12.2c2.1,0.8,4.5,0.3,6.2-1.4
	C37.1,21.2,37.5,18.8,36.8,16.8L36.8,16.8z M15.2,35.6c-0.5,0-0.9-0.4-0.9-0.9c0-0.5,0.4-0.9,0.9-0.9s0.9,0.4,0.9,0.9
	C16.1,35.2,15.7,35.6,15.2,35.6z"/>
</svg>
