<?xml version="1.0" encoding="UTF-8"?>
<svg id="Capa_1" data-name="Capa 1" xmlns="http://www.w3.org/2000/svg" viewBox="0 0 50 50">
  <defs>
    <style>
      .cls-1 {
        fill: none;
        stroke: #f3dc2a;
        stroke-width: 3px;
      }

      .cls-1, .cls-2 {
        stroke-linecap: round;
        stroke-linejoin: round;
      }

      .cls-3 {
        fill: #e54e59;
      }

      .cls-3, .cls-4 {
        stroke-width: 0px;
      }

      .cls-4 {
        fill: #f3dc2a;
      }

      .cls-2 {
        fill: #fff;
        stroke: #e8e8e8;
        stroke-width: .5px;
      }
    </style>
  </defs>
  <circle class="cls-2" cx="25" cy="25" r="25"/>
  <circle class="cls-4" cx="25" cy="25" r="20"/>
  <g>
    <g>
      <path class="cls-3" d="m17.15,32.42c.14-.03.35-.15.54-.3l-3.82-3.84,14.37-14.37-.09-.09h0s3.93,3.95,3.93,3.95c.15-.19.27-.4.3-.53.22-2.07-2.58-4.88-4.64-4.67-.17.03-.48.23-.68.43-5.61,5.6-8.5,8.47-14.12,14.07-.2.2-.4.51-.43.68-.22,2.07,2.58,4.88,4.64,4.67Z"/>
      <line class="cls-3" x1="16.62" y1="25.31" x2="16.71" y2="25.22"/>
      <g>
        <g>
          <polygon class="cls-3" points="13.91 27.78 14.03 27.9 17.97 31.84 18.28 31.52 14.34 27.58 14.22 27.46 13.91 27.78"/>
          <polygon class="cls-3" points="14.93 26.75 14.62 27.07 14.74 27.19 18.67 31.13 18.99 30.81 15.05 26.87 14.93 26.75"/>
          <polygon class="cls-3" points="15.32 26.36 15.44 26.48 19.38 30.42 19.7 30.11 15.76 26.17 15.64 26.05 15.32 26.36"/>
          <polygon class="cls-3" points="16.03 25.65 16.15 25.77 20.09 29.71 20.41 29.4 16.47 25.46 16.35 25.34 16.03 25.65"/>
          <polygon class="cls-3" points="16.74 24.94 16.86 25.06 16.86 25.07 20.8 29 21.12 28.69 17.17 24.75 17.06 24.63 16.74 24.94"/>
          <polygon class="cls-3" points="17.45 24.24 17.57 24.35 21.51 28.29 21.82 27.98 17.89 24.04 17.88 24.04 17.76 23.92 17.45 24.24"/>
          <polygon class="cls-3" points="18.16 23.53 18.27 23.64 22.22 27.59 22.53 27.27 18.59 23.33 18.47 23.21 18.16 23.53"/>
          <polygon class="cls-3" points="18.87 22.82 18.98 22.93 22.93 26.88 23.24 26.56 19.3 22.62 19.18 22.5 18.87 22.82"/>
          <polygon class="cls-3" points="19.57 22.11 19.69 22.23 23.63 26.17 23.95 25.85 20.01 21.91 19.89 21.8 19.57 22.11"/>
          <polygon class="cls-3" points="20.28 21.4 20.4 21.52 24.34 25.46 24.66 25.15 20.71 21.2 20.6 21.09 20.28 21.4"/>
        </g>
        <g>
          <polygon class="cls-3" points="20.96 20.72 21.08 20.84 25.02 24.78 25.34 24.47 21.4 20.53 21.28 20.41 20.96 20.72"/>
          <polygon class="cls-3" points="21.99 19.7 21.67 20.02 21.79 20.13 25.73 24.07 26.04 23.76 22.11 19.82 21.99 19.7"/>
          <polygon class="cls-3" points="22.38 19.31 22.5 19.43 26.44 23.37 26.75 23.05 22.81 19.11 22.69 18.99 22.38 19.31"/>
          <polygon class="cls-3" points="23.09 18.6 23.21 18.72 27.15 22.66 27.46 22.34 23.52 18.4 23.4 18.28 23.09 18.6"/>
          <polygon class="cls-3" points="23.8 17.89 23.91 18.01 23.92 18.01 27.85 21.95 28.17 21.63 24.23 17.69 24.11 17.57 23.8 17.89"/>
          <polygon class="cls-3" points="24.5 17.18 24.62 17.3 28.56 21.24 28.88 20.92 24.94 16.99 24.94 16.98 24.82 16.87 24.5 17.18"/>
          <polygon class="cls-3" points="25.21 16.47 25.33 16.59 29.27 20.53 29.59 20.22 25.64 16.27 25.53 16.16 25.21 16.47"/>
          <polygon class="cls-3" points="25.92 15.76 26.04 15.88 29.98 19.82 30.3 19.51 26.35 15.56 26.24 15.45 25.92 15.76"/>
          <polygon class="cls-3" points="26.63 15.06 26.75 15.17 30.69 19.11 31 18.8 27.06 14.86 26.94 14.74 26.63 15.06"/>
          <polygon class="cls-3" points="27.34 14.35 27.45 14.46 31.4 18.41 31.71 18.09 27.77 14.15 27.65 14.03 27.34 14.35"/>
        </g>
      </g>
      <path class="cls-3" d="m21.2,20.96l7.04-7.04-.09-.09h0s3.93,3.95,3.93,3.95c.15-.19.27-.4.3-.53.22-2.07-2.58-4.88-4.64-4.67-.17.03-.48.23-.68.43-2.68,2.67-4.89,4.87-6.92,6.9l1.06,1.06Z"/>
    </g>
    <g>
      <path class="cls-1" d="m26.33,35.93c.59.64.16,1.24.2,1.39.04.16.6.17.7-.07.1-.24-.17-.71.8-.77.34-.02.66-.13.94-.31.13-.08.24-.18.35-.29.75-.77.81-2.08.14-3.1-.37-.57-.91-.98-1.52-1.17-.24-.07-.48-.1-.71-.1l.15-4.85.93-.83-4.07-10.25-.48-.76,2.51,10.97-.24,6.14c-.08.06-.15.12-.22.19-.75.77-.8,2.08-.14,3.11.18.28.4.52.65.71h0Zm-.07-1.09c-.49-.76-.47-1.71.06-2.25.07-.07.15-.13.23-.19.34-.22.77-.27,1.2-.14.46.13.86.45,1.14.88.49.76.47,1.71-.06,2.25-.07.07-.14.13-.23.19-.34.22-.77.27-1.21.14-.45-.14-.86-.45-1.14-.88h0Zm0,0"/>
      <path class="cls-1" d="m32.56,25.4c-.06.08-.1.16-.14.25l-3.95.39-.79.65v1.31s4.53-1.35,4.53-1.35c.02.31.11.62.26.92.2.38.5.71.87.96.25.16.75.41,1.55.51.82.03,1.6-.31,2.04-.94.09-.13.15-.26.21-.4.23-.57.18-1.2-.13-1.79-.3-.56-.81-1.01-1.44-1.26-1.14-.45-2.41-.14-3.02.74Zm2.76-.1c.48.19.86.52,1.08.95.21.4.24.83.09,1.21-.04.09-.08.18-.14.26-.43.62-1.35.83-2.2.49-.48-.19-.86-.53-1.08-.94-.21-.4-.24-.83-.09-1.21.04-.1.08-.18.14-.26.43-.62,1.36-.83,2.2-.49Z"/>
      <path class="cls-1" d="m25.98,27.22l.07-1.45-.14-.55-3.27-.37-6.38-1.15.45.46,9.22,3.08h.06Zm-.06,0"/>
    </g>
    <g>
      <path class="cls-3" d="m26.33,35.93c.59.64.16,1.24.2,1.39.04.16.6.17.7-.07.1-.24-.17-.71.8-.77.34-.02.66-.13.94-.31.13-.08.24-.18.35-.29.75-.77.81-2.08.14-3.1-.37-.57-.91-.98-1.52-1.17-.24-.07-.48-.1-.71-.1l.15-4.85.93-.83-4.07-10.25-.48-.76,2.51,10.97-.24,6.14c-.08.06-.15.12-.22.19-.75.77-.8,2.08-.14,3.11.18.28.4.52.65.71h0Zm-.07-1.09c-.49-.76-.47-1.71.06-2.25.07-.07.15-.13.23-.19.34-.22.77-.27,1.2-.14.46.13.86.45,1.14.88.49.76.47,1.71-.06,2.25-.07.07-.14.13-.23.19-.34.22-.77.27-1.21.14-.45-.14-.86-.45-1.14-.88h0Zm0,0"/>
      <path class="cls-3" d="m32.78,25.53c-.06.08-.1.16-.14.25l-3.95.39-.79.65v1.31s4.53-1.35,4.53-1.35c.02.31.11.62.26.92.2.38.5.71.87.96.25.16.75.41,1.55.51.82.03,1.6-.31,2.04-.94.09-.13.15-.26.21-.4.23-.57.18-1.2-.13-1.79-.3-.56-.81-1.01-1.44-1.26-1.14-.45-2.41-.14-3.02.74Zm2.76-.1c.48.19.86.52,1.08.95.21.4.24.83.09,1.21-.04.09-.08.18-.14.26-.43.62-1.35.83-2.2.49-.48-.19-.86-.53-1.08-.94-.21-.4-.24-.83-.09-1.21.04-.1.08-.18.14-.26.43-.62,1.36-.83,2.2-.49Z"/>
      <path class="cls-3" d="m25.98,27.22l.07-1.45-.14-.55-3.27-.37-6.38-1.15.45.46,9.22,3.08h.06Zm-.06,0"/>
    </g>
  </g>
</svg>