<?xml version="1.0" encoding="utf-8"?>
<!-- Generator: Adobe Illustrator 28.0.0, SVG Export Plug-In . SVG Version: 6.00 Build 0)  -->
<svg version="1.1" id="Capa_1" xmlns="http://www.w3.org/2000/svg" xmlns:xlink="http://www.w3.org/1999/xlink" x="0px" y="0px"
	 viewBox="0 0 50 50" style="enable-background:new 0 0 50 50;" xml:space="preserve">
<style type="text/css">
	.st0{fill:#FFFFFF;}
	.st1{fill:#E8E8E8;}
	.st2{fill:#F3DC2A;}
	.st3{fill:#E54E59;}
	.st4{fill:none;}
</style>
<g>
	<circle class="st0" cx="25" cy="25" r="24.3"/>
	<path class="st1" d="M25,49.5c-13.5,0-24.5-11-24.5-24.5S11.5,0.5,25,0.5s24.5,11,24.5,24.5S38.5,49.5,25,49.5z M25,1
		C11.8,1,1,11.8,1,25s10.8,24,24,24s24-10.8,24-24S38.2,1,25,1z"/>
</g>
<circle class="st2" cx="25" cy="25" r="19.4"/>
<g>
	<g>
		<path class="st3" d="M17.4,32.2c0.1,0,0.3-0.1,0.5-0.3l-3.6-3.7l13.9-13.9L28,14.1l0,0l3.8,3.8c0.1-0.2,0.3-0.4,0.3-0.5
			c0.2-2-2.5-4.7-4.5-4.5c-0.2,0-0.5,0.2-0.7,0.4c-5.5,5.4-8.2,8.2-13.7,13.6c-0.2,0.2-0.4,0.5-0.4,0.7
			C12.7,29.7,15.4,32.4,17.4,32.2z"/>
		<line class="st4" x1="16.9" y1="25.3" x2="17" y2="25.2"/>
		<g>
			<g>
				<polygon class="st3" points="14.2,27.7 14.3,27.8 18.1,31.7 18.4,31.4 14.6,27.5 14.5,27.4 				"/>
				<polygon class="st3" points="15.2,26.7 14.9,27 15,27.2 18.8,31 19.1,30.7 15.3,26.9 				"/>
				<polygon class="st3" points="15.6,26.3 15.7,26.5 19.5,30.3 19.9,30 16.1,26.2 15.9,26 				"/>
				<polygon class="st3" points="16.3,25.6 16.4,25.8 20.2,29.6 20.6,29.3 16.8,25.5 16.6,25.3 				"/>
				<polygon class="st3" points="17,24.9 17.1,25.1 17.1,25.1 20.9,28.9 21.3,28.6 17.4,24.8 17.3,24.6 				"/>
				<polygon class="st3" points="17.6,24.2 17.7,24.4 21.6,28.2 22,27.9 18.1,24 18.1,24 17.9,23.9 				"/>
				<polygon class="st3" points="18.3,23.5 18.4,23.7 22.3,27.5 22.6,27.2 18.8,23.3 18.6,23.2 				"/>
				<polygon class="st3" points="19,22.8 19.1,23 23,26.9 23.3,26.5 19.5,22.6 19.3,22.5 				"/>
				<polygon class="st3" points="19.7,22.2 19.8,22.4 23.6,26.2 24,25.8 20.2,22 20,21.9 				"/>
				<polygon class="st3" points="20.4,21.5 20.5,21.7 24.3,25.5 24.7,25.1 20.9,21.3 20.7,21.2 				"/>
			</g>
			<g>
				<polygon class="st3" points="21.1,20.9 21.2,21 25,24.8 25.3,24.5 21.5,20.7 21.4,20.6 				"/>
				<polygon class="st3" points="22.1,19.9 21.8,20.2 21.9,20.3 25.7,24.1 26,23.8 22.2,20 				"/>
				<polygon class="st3" points="22.5,19.5 22.5,19.6 26.4,23.4 26.7,23.1 22.8,19.3 22.7,19.1 				"/>
				<polygon class="st3" points="23.1,18.8 23.2,18.9 27.1,22.7 27.4,22.5 23.5,18.6 23.4,18.4 				"/>
				<polygon class="st3" points="23.8,18.1 23.9,18.2 23.9,18.2 27.7,22.1 28,21.8 24.2,17.9 24.1,17.7 				"/>
				<polygon class="st3" points="24.5,17.5 24.6,17.6 28.4,21.4 28.7,21.1 24.9,17.3 24.9,17.3 24.8,17.2 				"/>
				<polygon class="st3" points="25.2,16.8 25.3,16.9 29.1,20.7 29.4,20.4 25.6,16.6 25.5,16.4 				"/>
				<polygon class="st3" points="25.9,16.1 26,16.2 29.8,20 30.1,19.7 26.3,15.9 26.2,15.7 				"/>
				<polygon class="st3" points="26.6,15.4 26.7,15.5 30.5,19.3 30.8,19 27,15.2 26.9,15 				"/>
				<polygon class="st3" points="27.3,14.7 27.4,14.8 31.2,18.6 31.5,18.3 27.6,14.5 27.5,14.3 				"/>
			</g>
		</g>
		<path class="st3" d="M21.3,21.1l6.9-6.9L28,14.1l0,0l3.8,3.8c0.1-0.2,0.3-0.4,0.3-0.5c0.2-2-2.5-4.7-4.5-4.5
			c-0.2,0-0.5,0.2-0.7,0.4c-2.6,2.5-4.7,4.7-6.8,6.7L21.3,21.1L21.3,21.1z"/>
	</g>
	<g>
		<path class="st2" d="M26.8,38.5c-0.1,0-0.1,0-0.2,0c-0.8-0.1-1.4-0.5-1.6-1.2c-0.1-0.3,0-0.6,0-0.8c-0.3-0.2-0.5-0.5-0.7-0.8
			c-1-1.5-0.9-3.4,0.1-4.6l0.2-5.2l-2.4-10.5c-0.2-0.7,0.2-1.4,0.9-1.7c0.7-0.3,1.4,0,1.8,0.6l0.5,0.8c0,0.1,0.1,0.2,0.1,0.2
			l3.9,9.9c0.2,0.6,0.1,1.2-0.4,1.7l-0.4,0.4l-0.1,2.8c0.8,0.3,1.5,0.9,1.9,1.6c1,1.6,0.9,3.6-0.3,4.8c-0.2,0.2-0.4,0.3-0.6,0.5
			c-0.3,0.2-0.8,0.4-1.2,0.5C28.1,38.1,27.5,38.5,26.8,38.5z M27.5,33.8c0.1,0.1,0.1,0.1,0.2,0.1c0-0.1,0-0.2-0.1-0.3
			c-0.1-0.1-0.1-0.2-0.2-0.2C27.4,33.5,27.4,33.6,27.5,33.8L27.5,33.8z"/>
		<path class="st2" d="M34.7,30.4c-0.1,0-0.1,0-0.2,0h-0.1c-1-0.1-1.7-0.5-2.2-0.7c-0.5-0.4-0.9-0.8-1.2-1.3l-3,0.9
			c-0.4,0.1-0.9,0-1.3-0.2c-0.4-0.3-0.6-0.7-0.6-1.2v-1.3c0-0.4,0.2-0.9,0.5-1.1l0.8-0.6c0.2-0.2,0.5-0.3,0.8-0.3l3.1-0.3
			c1.1-1.2,2.8-1.6,4.4-1c0.9,0.4,1.7,1.1,2.2,1.9c0.5,1,0.6,2.1,0.2,2.9c-0.1,0.2-0.2,0.4-0.4,0.7C37.1,29.8,36,30.4,34.7,30.4z
			 M34.1,26.6c0.1,0.1,0.2,0.1,0.3,0.2c0.1,0.1,0.3,0.1,0.3,0.1c-0.1-0.1-0.1-0.1-0.2-0.1h-0.1C34.3,26.6,34.2,26.6,34.1,26.6z
			 M34.8,26.8L34.8,26.8L34.8,26.8z"/>
		<path class="st2" d="M26,28.6c-0.2,0-0.4,0-0.5-0.1l-8.9-2.9c-0.2-0.1-0.4-0.2-0.6-0.4l-0.4-0.5c-0.5-0.5-0.6-1.2-0.3-1.7
			c0.3-0.6,0.9-0.9,1.6-0.8l6.2,1.1l3,0.4c0.6,0.1,1.1,0.5,1.3,1.1l0.1,0.5c0,0.1,0.1,0.3,0,0.4L27.4,27c0,0.3-0.1,0.6-0.2,0.9
			C27,28.3,26.5,28.6,26,28.6z"/>
	</g>
	<g>
		<path class="st3" d="M26.3,35.6c0.6,0.6,0.2,1.2,0.2,1.4c0,0.2,0.6,0.2,0.7-0.1c0.1-0.2-0.2-0.7,0.8-0.8c0.3,0,0.7-0.1,0.9-0.3
			c0.1-0.1,0.2-0.2,0.3-0.3c0.7-0.8,0.8-2.1,0.1-3c-0.4-0.6-0.9-1-1.5-1.2c-0.2-0.1-0.5-0.1-0.7-0.1l0.1-4.7l0.9-0.8l-3.9-9.9
			L23.6,15l2.5,10.7L26,31.8c-0.1,0.1-0.1,0.1-0.2,0.2c-0.7,0.8-0.8,2.1-0.1,3C25.8,35.2,26.1,35.4,26.3,35.6L26.3,35.6L26.3,35.6z
			 M26.2,34.5c-0.5-0.8-0.5-1.7,0.1-2.2c0.1-0.1,0.1-0.1,0.2-0.2c0.3-0.2,0.8-0.3,1.2-0.1c0.5,0.1,0.9,0.4,1.1,0.9
			c0.5,0.8,0.5,1.7-0.1,2.2c-0.1,0.1-0.1,0.1-0.2,0.2c-0.3,0.2-0.8,0.3-1.2,0.1C26.9,35.3,26.5,35,26.2,34.5L26.2,34.5L26.2,34.5z"
			/>
		<path class="st3" d="M32.5,25.5c-0.1,0.1-0.1,0.2-0.1,0.2l-3.8,0.4l-0.8,0.6v1.3l4.4-1.3c0,0.3,0.1,0.6,0.3,0.9
			c0.2,0.4,0.5,0.7,0.9,1c0.2,0.2,0.7,0.4,1.5,0.5c0.8,0,1.6-0.3,2-0.9c0.1-0.1,0.1-0.3,0.2-0.4c0.2-0.6,0.2-1.2-0.1-1.8
			s-0.8-1-1.4-1.2C34.4,24.3,33.1,24.6,32.5,25.5L32.5,25.5z M35.2,25.4c0.5,0.2,0.9,0.5,1.1,0.9c0.2,0.4,0.2,0.8,0.1,1.2
			c0,0.1-0.1,0.2-0.1,0.3c-0.4,0.6-1.3,0.8-2.2,0.5c-0.5-0.2-0.9-0.5-1.1-0.9s-0.2-0.8-0.1-1.2c0-0.1,0.1-0.2,0.1-0.3
			C33.5,25.3,34.4,25.1,35.2,25.4L35.2,25.4z"/>
		<path class="st3" d="M26,27.2l0.1-1.4L26,25.3l-3.1-0.4l-6.2-1.1l0.4,0.5L26,27.2L26,27.2L26,27.2z"/>
	</g>
</g>
</svg>
