<?xml version="1.0" encoding="utf-8"?>
<!-- Generator: Adobe Illustrator 28.0.0, SVG Export Plug-In . SVG Version: 6.00 Build 0)  -->
<svg version="1.1" id="Capa_1" xmlns="http://www.w3.org/2000/svg" xmlns:xlink="http://www.w3.org/1999/xlink" x="0px" y="0px"
	 viewBox="0 0 50 50" style="enable-background:new 0 0 50 50;" xml:space="preserve">
<style type="text/css">
	.st0{fill:#FFFFFF;}
	.st1{fill:#E8E8E8;}
	.st2{fill:#F3DC2A;}
	.st3{fill:#E54E59;}
</style>
<g>
	<circle class="st0" cx="25" cy="25" r="24.3"/>
	<path class="st1" d="M25,49.5c-13.5,0-24.5-11-24.5-24.5S11.5,0.5,25,0.5s24.5,11,24.5,24.5S38.5,49.5,25,49.5z M25,1
		C11.8,1,1,11.8,1,25s10.8,24,24,24s24-10.8,24-24S38.2,1,25,1z"/>
</g>
<circle class="st2" cx="25" cy="25" r="19.4"/>
<g>
	<path class="st3" d="M33,27.4h-1.6V26H18.2v1.4h-1.6V26h-3.9v6.6c0,1.7,1.4,3.1,3.1,3.1h18c1.7,0,3.1-1.4,3.1-3.1V26h-4.1L33,27.4
		L33,27.4z"/>
	<path class="st3" d="M34,19.1h-4.2c0,0,0,0,0,0.1H29c0,0,0,0,0-0.1h-8.1c0,0,0,0,0,0.1h-0.8c0,0,0,0,0-0.1h-4.2
		c-1.7,0-3.1,1.4-3.1,3.1v2.4h24.3v-2.4C37.2,20.5,35.8,19.1,34,19.1z"/>
	<path class="st3" d="M25,15.9c2.3,0,4,1.5,4,3.3h0.8c0-0.2,0.1-0.5,0.1-0.7c0-2.3-2.2-4-4.9-4s-4.9,1.9-4.9,4c0,0.2,0,0.5,0.1,0.7
		H21C21,17.4,22.7,15.9,25,15.9z"/>
	<path class="st3" d="M29,19.2h0.8c0,0,0,0,0-0.1L29,19.2C29,19.1,29,19.1,29,19.2z"/>
	<path class="st3" d="M21,19.2C21,19.2,21,19.1,21,19.2l-0.8-0.1c0,0,0,0,0,0.1H21z"/>
</g>
</svg>
