<?xml version="1.0" encoding="utf-8"?>
<!-- Generator: Adobe Illustrator 28.0.0, SVG Export Plug-In . SVG Version: 6.00 Build 0)  -->
<svg version="1.1" id="Capa_1" xmlns="http://www.w3.org/2000/svg" xmlns:xlink="http://www.w3.org/1999/xlink" x="0px" y="0px"
	 viewBox="0 0 50 50" style="enable-background:new 0 0 50 50;" xml:space="preserve">
<style type="text/css">
	.st0{fill:#FFFFFF;}
	.st1{fill:#E8E8E8;}
	.st2{fill:#F3DC2A;}
	.st3{fill:#E33A60;}
</style>
<g>
	<circle class="st0" cx="25" cy="25" r="24.3"/>
	<path class="st1" d="M25,49.5c-13.5,0-24.5-11-24.5-24.5S11.5,0.5,25,0.5s24.5,11,24.5,24.5S38.5,49.5,25,49.5z M25,1
		C11.8,1,1,11.8,1,25s10.8,24,24,24s24-10.8,24-24S38.2,1,25,1z"/>
</g>
<circle class="st2" cx="25" cy="25" r="19.4"/>
<g>
	<path class="st3" d="M26.2,17.7c2.5,0.1,5.1,0,7.5,0.5l0.1,0.1c0,0,0,0.1-0.1,0.1c-0.2,0.1-0.4,0.2-0.5,0.3c-0.4,0.3,0,0.7,0.2,1
		c0.6,0.8,1.4,1.6,1.6,2.6c0.1,0.7,0.1,1.3,0.1,2c0,0.1,0,0.2-0.1,0.2c-0.9,1.1-0.4,1-1.8,1c-0.4,0.1-0.1-1-1.4-1.8
		c-0.3-0.2-0.6-0.4-1-0.5c-0.2-0.1-0.2-0.1-0.2-0.3c0.1-1-0.1-2.1-1.1-2.5c-0.1,0-0.1-0.1,0-0.2c0.2-0.2,0.3-0.3,0.5-0.5
		s0.2-0.6-0.1-0.6c-1.5-0.2-2.9-0.4-4.5-0.6c-0.3,0-0.3-0.1-0.4,0.2c-0.3,0.8-0.6,1.5-0.9,2.3c-0.1,0.2,0,0.2,0.1,0.2
		c0.4,0,0.9-0.1,1.3-0.1c0.3,0,0.7,0,1-0.1c0.1,0,0.1,0,0.1,0.1c-0.3,0.7-0.3,1.5-0.3,2.3c0,0.1-0.1,0.2-0.2,0.2
		c-0.7,0-1.4,0.1-2.1,0.4c-0.8,0.4-1.9,0.9-2,1.9c0,0.1,0,0.1-0.1,0.1c-0.4,0-0.8,0-1.2,0c-0.1,0-0.1,0-0.1-0.1
		c-0.1-0.9-0.4-1.7-1.2-2.3c-0.8-0.5-1.8-0.6-2.6-0.3c-1.2,0.4-1.8,1.7-1.9,2.8c0,0.1,0,0.1-0.1,0.1c-0.5,0-0.9,0-1.4,0
		c-0.4,0-0.9-0.2-0.9-0.6c0-0.6,0-1.2,0-1.8c-0.1-0.3,0.8,0,1.5-0.5c0.4-0.2,0.8-0.5,1.2-0.7c0.1-0.1,0.2-0.2,0.1-0.4
		c-0.1-0.3-0.8-0.1-1.1,0c-0.3,0.1-1.7,0.7-1.7,0.4c0-0.2,0.1-0.4,0.3-0.6c2.2-1.1,4.4-2.1,6.6-2.9C21.9,18.4,23.9,17.6,26.2,17.7
		L26.2,17.7L26.2,17.7z M22.1,21.4L22.1,21.4c0.5,0,0.9,0,1.4,0c0.1,0,0.1,0,0.2-0.1c0.4-0.9,0.8-1.8,1.1-2.5c0.1-0.1,0-0.2-0.1-0.2
		c-0.3,0-0.6,0.1-1,0.1c-1.8,0.3-3.3,1.2-5,2c-0.2,0.1-0.2,0.2,0,0.3C19.5,21.6,20.9,21.3,22.1,21.4L22.1,21.4z M33,19.8
		c-0.5,0.1-0.5,0.9-0.1,1.1c0.2,0.2,0.5,0.4,0.8,0.6c0.1,0.1,0.2,0.1,0.2,0c0.1-0.1,0.3-0.2,0.2-0.4c-0.3-0.4-0.6-0.8-0.9-1.2
		C33.1,19.9,33,19.9,33,19.8z"/>
	<path class="st3" d="M29.3,27.3c0.3,0.7,0.6,1.3,0.9,2c0.1,0.3,0.5,0.2,0.6,0c0,0,0-0.1,0-0.2c-0.2-0.4-0.4-0.9-0.7-1.3
		c1-0.1,2.4-0.1,2.4-1.4c0.8,0,1.6,0,2.4,0c0.6,0,0.9,0.6,1,1.1c-1.9-0.8-4,0.8-3.7,2.8c-0.8-0.2-1.6-0.3-2.4-0.5
		c-0.3,0-0.5,0-0.8,0.1c-0.7,0.3-1.4,0.2-2.2,0.1c-0.1,0-0.1,0-0.1-0.1c-0.1-1.8-1.6-2.8-3.3-2.6c-1.6-1.7,0.8-2.8,2.3-2.9
		c0.1,0,0.1,0,0.1,0.1c0,0.2,0,0.3,0,0.5c1.2-0.5,2.3-1.3,3.5-1.8c0.1,0,0.1,0,0.2,0c0.7,0.8,1.5,1.6,2.2,2.3c0.3,0.4,0.4,1,0,1.3
		c-0.2,0.1-0.5,0.2-0.7,0.2C30.5,27.1,29.9,27.2,29.3,27.3L29.3,27.3z M28.9,26.4L28.9,26.4c0.3,0,0.8,0.1,1-0.2
		c0.1-0.1,0-0.3-0.1-0.4c-0.4-0.4-0.8-0.8-1.1-1.2c-0.1-0.1-0.1-0.1-0.2,0c-0.8,0.4-1.6,0.7-2.4,1.1c-0.2,0.1-0.2,0.3,0,0.5
		c0.4,0.3,0.8,0.6,1.2,1c0.1,0.1,0.1,0.1,0.2,0C27.6,26.3,28.3,26.3,28.9,26.4z"/>
	<path class="st3" d="M18,23.9c2.6,0,2.7,4.1,0,4.1C15.3,27.9,15.4,23.9,18,23.9z M18.7,26c0-1-1.5-1-1.5,0S18.7,27,18.7,26z"/>
	<path class="st3" d="M21.8,30c0-3,4.6-3,4.6,0C26.4,33,21.8,32.9,21.8,30z M24.1,31.5c2,0,2-3,0-3C22.1,28.5,22.2,31.5,24.1,31.5z"
		/>
	<path class="st3" d="M34.9,27.6c3,0,3,4.6,0,4.6C31.8,32.2,31.9,27.6,34.9,27.6z M33.3,30c0,2,3,2,3,0C36.4,27.9,33.3,27.9,33.3,30
		z"/>
	<path class="st3" d="M27.3,22.8c0.5,0,1-0.2,1.5-0.4c0.1,0,0.1-0.1,0.1-0.2c0-1.1-0.7-0.6-1.4-0.5c0-0.9,1.1-0.9,1.7-0.9
		c0.4,0,0.7,0.4,0.8,0.8c0,0.3,0,0.5,0,0.8c0,0.1,0,0.1-0.1,0.1c-0.7,0-1.5,0.2-2.1,0.7C27.3,23.9,27.2,23.2,27.3,22.8L27.3,22.8z"
		/>
</g>
</svg>
