<?xml version="1.0" encoding="UTF-8"?>
<svg id="Capa_1" data-name="Capa 1" xmlns="http://www.w3.org/2000/svg" viewBox="0 0 50 50">
  <defs>
    <style>
      .cls-1 {
        fill: #e54e59;
      }

      .cls-1, .cls-2 {
        stroke-width: 0px;
      }

      .cls-2 {
        fill: #f3dc2a;
      }

      .cls-3 {
        fill: #fff;
        stroke: #e8e8e8;
        stroke-linecap: round;
        stroke-linejoin: round;
        stroke-width: .5px;
      }
    </style>
  </defs>
  <circle class="cls-3" cx="25" cy="25" r="25"/>
  <circle class="cls-2" cx="25" cy="25" r="20"/>
  <g>
    <path class="cls-1" d="m33.24,27.46h-1.6v-1.46h-13.56v1.46h-1.6v-1.46h-3.99v6.78c0,1.76,1.43,3.19,3.19,3.19h18.62c1.76,0,3.19-1.43,3.19-3.19v-6.78h-4.26v1.46Z"/>
    <path class="cls-1" d="m34.31,18.95h-4.34s0,.04-.01.06h-.79s0-.04,0-.06h-8.34s0,.04,0,.06h-.79s0-.04-.01-.06h-4.34c-1.76,0-3.19,1.43-3.19,3.19v2.39h25v-2.39c0-1.76-1.43-3.19-3.19-3.19Z"/>
    <path class="cls-1" d="m25,15.56c2.28,0,4.13,1.52,4.17,3.4h.8c.05-.24.08-.48.08-.73,0-2.31-2.26-4.19-5.05-4.19s-5.05,1.88-5.05,4.19c0,.25.03.5.08.73h.8c.04-1.88,1.89-3.4,4.17-3.4Z"/>
    <path class="cls-1" d="m29.17,19.01h.79s0-.04.01-.06h-.8s0,.04,0,.06Z"/>
    <path class="cls-1" d="m20.83,19.01s0-.04,0-.06h-.8s0,.04.01.06h.79Z"/>
  </g>
</svg>