<?xml version="1.0" encoding="UTF-8"?>
<svg id="Capa_1" data-name="Capa 1" xmlns="http://www.w3.org/2000/svg" viewBox="0 0 50 50">
  <defs>
    <style>
      .cls-1 {
        fill: #f3dc2a;
      }

      .cls-1, .cls-2 {
        stroke-width: 0px;
      }

      .cls-3 {
        fill: #fff;
        stroke: #e8e8e8;
        stroke-linecap: round;
        stroke-linejoin: round;
        stroke-width: .5px;
      }

      .cls-2 {
        fill: #e33a60;
      }
    </style>
  </defs>
  <circle class="cls-3" cx="25" cy="25" r="25"/>
  <circle class="cls-1" cx="25" cy="25" r="20"/>
  <g>
    <path class="cls-2" d="m26.18,17.52c2.6.13,5.25.03,7.81.54.03.02.08.06.08.09,0,.04-.03.09-.07.11-.18.11-.36.24-.55.32-.45.28.02.72.22.99.61.84,1.38,1.66,1.64,2.69.09.67.1,1.35.15,2.03,0,.1-.02.17-.07.25-.89,1.14-.37.99-1.85.99-.41.07-.09-.97-1.38-1.83-.31-.22-.65-.39-1-.54-.18-.08-.21-.12-.19-.32.1-.97-.1-2.16-1.09-2.59-.11-.05-.13-.13-.04-.22.16-.17.33-.33.49-.49.22-.2.2-.58-.15-.61-1.53-.19-3.07-.37-4.6-.56-.26-.02-.32-.11-.41.19-.3.77-.6,1.54-.9,2.3-.06.16-.04.2.14.19.45-.03.91-.07,1.36-.1.34-.02.67-.05,1.01-.07.1,0,.14.04.09.13-.35.72-.28,1.54-.35,2.31,0,.13-.06.19-.19.2-.72.05-1.43.14-2.11.41-.82.38-1.92.89-2.02,1.9,0,.09-.03.12-.12.11-.41,0-.83,0-1.24,0-.09,0-.11-.03-.12-.12-.1-.93-.42-1.74-1.23-2.29-.78-.51-1.81-.57-2.69-.3-1.22.39-1.82,1.69-1.88,2.89,0,.09-.04.12-.13.12-.47,0-.94,0-1.4,0-.36-.02-.86-.2-.87-.62,0-.6,0-1.2,0-1.81-.08-.29.85.03,1.5-.47.39-.24.78-.47,1.17-.7.12-.07.19-.23.15-.36-.15-.34-.82-.12-1.1-.03-.28.07-1.72.7-1.72.39,0-.25.12-.45.32-.58,2.2-1.14,4.52-2.08,6.81-3.01,2.1-.8,4.25-1.7,6.54-1.53,0,0,0,0,0,0Zm-4.25,3.76s0-.02,0-.03c.46,0,.93,0,1.39,0,.09,0,.14-.04.17-.12.38-.89.77-1.78,1.15-2.67.06-.14,0-.24-.14-.22-.32.04-.65.07-.97.14-1.81.35-3.46,1.22-5.13,1.98-.17.08-.18.17-.04.28.98.84,2.36.52,3.54.63Zm11.33-1.59c-.5.14-.51.87-.14,1.15.25.2.51.4.76.6.08.06.17.08.25.02.12-.08.27-.21.17-.38-.29-.42-.58-.84-.87-1.26-.04-.06-.12-.08-.17-.13Z"/>
    <path class="cls-2" d="m29.44,27.31c.3.66.59,1.31.89,1.97.11.26.52.25.58-.03.01-.05,0-.12-.02-.16-.21-.44-.45-.86-.66-1.31.97-.13,2.54-.14,2.56-1.44.81-.02,1.63,0,2.44,0,.62-.01.87.64.98,1.16-1.94-.8-4.13.85-3.88,2.93-.8-.18-1.58-.32-2.38-.48-.27-.05-.52.02-.77.1-.71.26-1.46.25-2.19.12-.07,0-.09-.04-.09-.11-.07-1.85-1.66-2.94-3.4-2.75-1.58-1.7.76-2.97,2.34-3,.07,0,.11.02.1.09,0,.16,0,.32,0,.5,1.24-.54,2.35-1.33,3.6-1.84.07-.03.12-.02.18.04.74.79,1.48,1.58,2.23,2.37.34.36.44,1.04-.02,1.33-.21.15-.46.19-.71.23-.59.11-1.2.16-1.78.29Zm-.39-.93s0,0,0,0c.31-.04.8.14.96-.21.06-.13.05-.27-.06-.37-.38-.41-.77-.82-1.15-1.23-.07-.08-.15-.09-.24-.05-.8.37-1.59.74-2.39,1.11-.2.1-.22.33-.05.47.41.32.81.64,1.22.96.11.09.14.08.18-.05.23-.68.93-.67,1.53-.63Z"/>
    <path class="cls-2" d="m17.83,23.86c2.74-.02,2.84,4.29-.05,4.27-2.79-.07-2.71-4.27.05-4.27Zm.73,2.14c-.01-1-1.47-.98-1.49,0,0,.97,1.49.97,1.49,0Z"/>
    <path class="cls-2" d="m21.71,30.12c.03-3.11,4.71-3.12,4.75.02-.06,3.13-4.75,3.09-4.75-.02Zm2.37,1.57c2.07-.04,2.05-3.1,0-3.13-2.06.05-2.05,3.1,0,3.13Z"/>
    <path class="cls-2" d="m35.16,27.75c3.09.02,3.16,4.73-.05,4.75-3.1-.08-3.02-4.76.05-4.75Zm-1.57,2.38c0,2.06,3.13,2.05,3.13-.02-.05-2.06-3.1-2.03-3.13.02Z"/>
    <path class="cls-2" d="m27.29,22.79c.54-.04,1-.2,1.5-.36.09-.03.14-.08.13-.18.02-1.16-.72-.6-1.41-.49-.05-.86,1.08-.92,1.7-.87.43.04.73.43.78.84.02.26.02.51.04.77,0,.09-.03.11-.11.12-.75.05-1.54.17-2.09.74-.51.54-.57-.19-.53-.56Z"/>
  </g>
</svg>