<?xml version="1.0" encoding="utf-8"?>
<!-- Generator: Adobe Illustrator 28.0.0, SVG Export Plug-In . SVG Version: 6.00 Build 0)  -->
<svg version="1.1" id="Capa_1" xmlns="http://www.w3.org/2000/svg" xmlns:xlink="http://www.w3.org/1999/xlink" x="0px" y="0px"
     viewBox="0 0 1000 198.9" style="enable-background:new 0 0 1000 198.9;" xml:space="preserve">
<style type="text/css">
	.st0{opacity:0.51; fill:#FFFFFF;}
	.st1{opacity:0.51; enable-background:new; fill:#FFFFFF;}
</style>
  <g>
	<g id="Grupo_152_00000011725544657225452160000017692520053675912117_" class="st0">
		<path id="Trazado_237_00000119817282449575551280000009962064463609086645_" d="M847.7,132c-7.7-5-12.5-6.5-20.6-6.5
			c-17.4,0-32,17.9-32,39.4c0,8.4,2.6,15.8,7.1,20.2c4.7,4.1,10.7,6.4,16.9,6.4c8.1,0,11.6-1,17.9-5.2l3.2-21.4h-18.9l0.8-5.5h25.3
			l-4.4,29.5c-7.3,5.4-16.1,8.2-25.2,7.9c-19.4,0-30.9-13.1-29.8-34.1c1.4-24.2,18.9-43.2,39.7-43.2c8.1-0.3,16.1,2.1,22.7,6.8
			L847.7,132z"/>
      <path id="Trazado_238_00000183218812282691733740000012427325739917009046_" d="M888.3,185.6c-4.8,7.4-11.3,11.4-18.6,11.4
			c-4.7,0-9.1-2.5-11.4-6.7c-2-3.3-2.5-6.7-2.5-13.4c0.2-5.4,1.4-10.8,3.4-15.8c4.3-10.2,12.1-16.7,20-16.7
			c7.2,0,11.7,4.1,11.2,10.2c-0.8,8.6-10,15.8-28.4,22.1c-0.1,0.7-0.1,1.4-0.1,2c0,7.5,3.7,12.6,9.3,12.9c4.8,0.3,9.2-2.5,14.7-9.3
			L888.3,185.6z M874.4,167.1c7-4.2,10-7.7,10.2-12.3c0.2-2.9-2-5.4-4.9-5.6c-0.3,0-0.7,0-1,0c-4.5,0-9.2,3.6-12.3,9.2
			c-2.4,4.5-3.8,9.5-4.3,14.5C866.5,171.4,870.6,169.5,874.4,167.1"/>
      <path id="Trazado_239_00000142162710207665162570000005850146026109504658_" d="M927.6,185.6C922.8,193,916.3,197,909,197
			c-4.7,0-9.1-2.5-11.4-6.7c-2-3.3-2.5-6.7-2.5-13.4c0.2-5.4,1.4-10.8,3.4-15.8c4.3-10.2,12.1-16.7,20-16.7
			c7.2,0,11.7,4.1,11.2,10.2c-0.8,8.6-10,15.8-28.4,22.1c-0.1,0.7-0.1,1.4-0.1,2c0,7.5,3.7,12.6,9.3,12.9c4.8,0.3,9.2-2.5,14.7-9.3
			L927.6,185.6z M913.7,167.1c7-4.2,10-7.7,10.2-12.3c0.2-2.9-2-5.4-4.9-5.6c-0.3,0-0.7,0-1,0c-4.5,0-9.2,3.6-12.3,9.2
			c-2.4,4.5-3.8,9.5-4.3,14.5C905.7,171.4,909.8,169.5,913.7,167.1"/>
      <path id="Trazado_240_00000059992309706749145250000006405255989258177213_" d="M945.8,163.4c3.1-5.1,4.1-6.8,6-9.3
			c4.3-6,9.4-9.4,14.3-9.4c5-0.4,9.3,3.3,9.7,8.3c0,0.5,0,1,0,1.5c-0.3,3.3-1.6,6.4-3.7,9c-3.6,4-6.4,6.1-14.8,11.2l14,21H964
			l-13.7-21.1c14.4-8.4,19.5-13.6,19.5-19.5c0.2-2.8-2-5.1-4.7-5.3c-0.3,0-0.7,0-1,0c-5.5,0.5-10.7,6-19.1,20.3l-3.8,25.6h-6
			l12.2-80.2h6L945.8,163.4z"/>
      <path id="Trazado_241_00000069369767230425773390000006301205351891213199_" d="M981.9,195.8l18.1-22.4L981.9,151l-3.6,8.8
			l11.2,13.9l-11.2,13.9L981.9,195.8z"/>
	</g>
    <g id="Grupo_153_00000127759115929687325230000009913042171735700126_" class="st0">
		<path id="Trazado_242_00000054234533795781183240000013695503625753968295_" d="M541.2,33.7l-25.9,32.6l25.9,32.6l5.1-12.8
			l-16.1-20.3l16.1-20.3L541.2,33.7z"/>
      <path id="Trazado_243_00000164472875193945846770000007852777299560196537_" d="M637.9,78.4c-13.5,0-24.1-11.4-24.1-26.1
			c0-14.8,9.7-25.2,23.2-25.2c6.5,0,12.8,2.1,17.9,6.1l12.8-19.5c-9.3-6.7-20.6-10.1-32.1-9.7c-27.4,0-48.5,20.9-48.5,48
			c0,28.4,18.6,48.4,46.1,49.7c12.4,0.7,24.7-3,34.8-10.3l-10.6-19.3C651.9,76.3,645,78.6,637.9,78.4"/>
      <path id="Trazado_244_00000099657864350427818830000004173815567373278124_" d="M703.8,31.3c-21.5,1.1-35.9,15.5-35.9,36
			c0,8.5,3.1,16.8,8.7,23.1c6.6,7,16.2,10.7,28.3,10.7c21.9,0,37.8-16.2,36.6-37.4C740.4,43.8,724.5,30.1,703.8,31.3 M705.6,83
			c-8,0-14.2-7.9-14.2-17.9c0-9,5.2-15.4,12.4-15.4c7.7,0,14.1,7.6,14.1,17.1C717.9,77.3,713.5,83,705.6,83"/>
      <path id="Trazado_245_00000108293806966690605990000004528217643563373469_" d="M815.6,73.7V1.9h-23.5v31.9
			c-4.3-1.8-9-2.5-13.7-2.1c-19.1,1.3-32.4,15.8-32.4,35.7c0,19.5,11,32.7,27.7,33.6c8,0.7,15.9-2.2,21.5-8c2.5,5.2,6.5,7.6,13.1,8
			c4.2,0.2,8.5-0.3,12.5-1.4l2.8-13.7C816.6,85.9,815.6,84.4,815.6,73.7 M792.1,78.5c-2.2,1.9-5.1,2.8-8,2.7
			c-8.7,0-14.4-6.2-14.4-15.9c0-9.4,5.5-15.2,14.2-15.2c2.9-0.1,5.8,0.9,8.2,2.7V78.5z"/>
      <path id="Trazado_246_00000095324719796038351720000014216296264393458567_" d="M840.1,4.3c-6.9-0.1-12.6,5.4-12.6,12.3
			c-0.1,6.9,5.4,12.6,12.3,12.6c0.1,0,0.2,0,0.3,0c6.9-0.1,12.4-5.8,12.3-12.6C852.3,9.9,846.9,4.4,840.1,4.3"/>
      <rect id="Rectángulo_262_00000146462849830881133410000013020439330461729929_" x="828.4" y="33.7" width="23.5" height="65.3"/>
      <path id="Trazado_247_00000083796164499756131820000012466655753653114763_" d="M898.1,88.4c-7.7-1.8-9.4-2.5-9.7-4.1
			c-0.1-0.8,0.3-1.7,1.4-2.8c8.3,0,12.8-1,18.1-4.1c6.9-4.2,10.9-11.7,10.7-19.7c0.1-4.1-1.2-8-3.8-11.1l12,0.4V33.7h-26.2
			c-10.8-4.1-22.9-2.7-32.5,3.8c-6.3,4.7-9.9,12.2-9.7,20c0,10.4,6.8,18.9,17.7,22.1c-5.1,3.1-7.2,6.2-6.9,10.6c0.1,1,0.3,2.1,0.8,3
			c-8.9,1.9-15.3,9.7-15.5,18.8c0,13.8,14.1,23.4,34.3,23.4c20,0,34.8-10.9,34.8-25.5c0.3-4.8-1.5-9.6-4.9-13
			C915.2,93.3,911,91.7,898.1,88.4 M888.8,44.1c6.2,0,10.3,5.5,10.3,13.7c0,7-3.5,11.3-9.1,11.3c-6.2,0-10.4-5.6-10.4-13.8
			C879.5,48.6,883.2,44.1,888.8,44.1 M888.8,122.4c-8,0-13.8-4.4-13.8-10.4c0-3.5,1.7-6.2,6.1-9.3l8,2.1c9.6,2.5,12.1,4.4,12.1,8.6
			C901.2,118.7,896.2,122.4,888.8,122.4"/>
      <path id="Trazado_248_00000014607664185555093360000005987836209592068791_" d="M999.9,63.7c-1.1-19.9-17-33.6-37.7-32.4
			c-21.5,1.1-35.9,15.5-35.9,36c0,8.5,3.1,16.8,8.7,23.1c6.6,7,16.2,10.7,28.3,10.7C985.3,101.1,1001.2,84.9,999.9,63.7 M964.1,83
			c-8,0-14.2-7.9-14.2-17.9c0-9,5.2-15.4,12.4-15.4c7.7,0,14.1,7.6,14.1,17.1C976.3,77.3,971.9,83,964.1,83"/>
      <path id="Trazado_249_00000032620912911718400140000006179316255331981447_" d="M547.7,98.9h10.6l25.9-65.2h-10.6L547.7,98.9z"/>
      <path id="Trazado_250_00000098195782928105940870000006554248952178629521_" d="M731.8,12.2l-16.9-6.4L692,23l12.2,5.1L731.8,12.2
			z"/>
	</g>
    <g class="st1">
		<path d="M13.2,80.8v22.6H0V39.2h25c4.8,0,9.1,0.9,12.7,2.6c3.7,1.8,6.5,4.3,8.4,7.5c2,3.2,3,6.9,3,11.1c0,6.3-2.2,11.3-6.5,14.9
			c-4.3,3.6-10.3,5.4-17.9,5.4H13.2z M13.2,70.1H25c3.5,0,6.2-0.8,8-2.5c1.8-1.6,2.8-4,2.8-7.1c0-3.1-0.9-5.7-2.8-7.6
			c-1.9-1.9-4.4-2.9-7.7-3H13.2V70.1z"/>
      <path d="M54.9,79.2c0-4.7,0.9-9,2.7-12.7c1.8-3.7,4.4-6.6,7.9-8.6c3.4-2,7.4-3,11.9-3c6.4,0,11.7,2,15.8,5.9
			c4.1,3.9,6.3,9.3,6.8,16.1l0.1,3.3c0,7.3-2,13.2-6.1,17.6c-4.1,4.4-9.6,6.6-16.4,6.6c-6.9,0-12.4-2.2-16.5-6.6
			c-4.1-4.4-6.2-10.4-6.2-18V79.2z M67.6,80.1c0,4.5,0.9,8,2.6,10.4c1.7,2.4,4.1,3.6,7.3,3.6c3.1,0,5.5-1.2,7.2-3.6
			c1.7-2.4,2.6-6.2,2.6-11.4c0-4.4-0.9-7.9-2.6-10.3c-1.7-2.4-4.2-3.7-7.3-3.7c-3.1,0-5.5,1.2-7.2,3.6C68.5,71.2,67.6,75,67.6,80.1z
			"/>
      <path d="M149.4,86.1l6.3-30.4H168l-12.2,47.7h-10.7l-9-30l-9,30h-10.6l-12.2-47.7h12.3l6.2,30.3l8.7-30.3h9.2L149.4,86.1z"/>
      <path d="M196.2,104.3c-7,0-12.7-2.1-17.1-6.4c-4.4-4.3-6.6-10-6.6-17.2v-1.2c0-4.8,0.9-9.1,2.8-12.9c1.9-3.8,4.5-6.7,7.9-8.7
			c3.4-2,7.3-3.1,11.6-3.1c6.5,0,11.7,2.1,15.4,6.2c3.7,4.1,5.6,10,5.6,17.5v5.2h-30.4c0.4,3.1,1.7,5.6,3.7,7.5
			c2.1,1.9,4.7,2.8,7.9,2.8c4.9,0,8.7-1.8,11.5-5.3l6.3,7c-1.9,2.7-4.5,4.8-7.8,6.3C203.8,103.6,200.2,104.3,196.2,104.3z
			 M194.8,65.1c-2.5,0-4.6,0.9-6.2,2.6c-1.6,1.7-2.6,4.2-3,7.4h17.7v-1c-0.1-2.8-0.8-5-2.3-6.6C199.6,65.9,197.5,65.1,194.8,65.1z"
      />
      <path d="M249.9,67.7c-1.7-0.2-3.3-0.4-4.6-0.4c-4.8,0-8,1.6-9.5,4.9v31.2h-12.7V55.7h12l0.4,5.7c2.6-4.4,6.1-6.6,10.6-6.6
			c1.4,0,2.7,0.2,4,0.6L249.9,67.7z"/>
      <path d="M278,104.3c-7,0-12.7-2.1-17.1-6.4c-4.4-4.3-6.6-10-6.6-17.2v-1.2c0-4.8,0.9-9.1,2.8-12.9c1.9-3.8,4.5-6.7,7.9-8.7
			c3.4-2,7.3-3.1,11.6-3.1c6.5,0,11.7,2.1,15.4,6.2c3.7,4.1,5.6,10,5.6,17.5v5.2h-30.4c0.4,3.1,1.7,5.6,3.7,7.5
			c2.1,1.9,4.7,2.8,7.9,2.8c4.9,0,8.7-1.8,11.5-5.3l6.3,7c-1.9,2.7-4.5,4.8-7.8,6.3C285.6,103.6,282,104.3,278,104.3z M276.5,65.1
			c-2.5,0-4.6,0.9-6.2,2.6c-1.6,1.7-2.6,4.2-3,7.4h17.7v-1c-0.1-2.8-0.8-5-2.3-6.6C281.3,65.9,279.2,65.1,276.5,65.1z"/>
      <path d="M302.9,79.2c0-7.4,1.7-13.4,5-17.8c3.3-4.4,7.9-6.6,13.7-6.6c4.6,0,8.5,1.7,11.5,5.2V35.7h12.8v67.7h-11.5l-0.6-5.1
			c-3.2,4-7.3,6-12.3,6c-5.6,0-10.1-2.2-13.5-6.6C304.6,93.3,302.9,87.1,302.9,79.2z M315.6,80.2c0,4.5,0.8,7.9,2.3,10.3
			c1.6,2.4,3.8,3.6,6.8,3.6c3.9,0,6.7-1.7,8.3-5V70.2c-1.6-3.3-4.3-5-8.2-5C318.7,65.2,315.6,70.2,315.6,80.2z"/>
      <path d="M421.2,80c0,7.6-1.6,13.6-4.9,17.9c-3.3,4.3-7.8,6.4-13.7,6.4c-5.2,0-9.3-2-12.4-6l-0.6,5.1h-11.5V35.7H391V60
			c2.9-3.4,6.8-5.2,11.6-5.2c5.8,0,10.4,2.1,13.7,6.4c3.3,4.3,5,10.3,5,18.1V80z M408.5,79.1c0-4.8-0.8-8.3-2.3-10.6
			c-1.5-2.2-3.8-3.3-6.8-3.3c-4.1,0-6.9,1.7-8.4,5V89c1.6,3.4,4.4,5,8.5,5c4.1,0,6.8-2,8.1-6.1C408.2,86,408.5,83.1,408.5,79.1z"/>
      <path d="M446.9,85.4l8.8-29.7h13.7l-19.2,55.1l-1.1,2.5c-2.9,6.2-7.6,9.3-14.1,9.3c-1.9,0-3.7-0.3-5.6-0.8v-9.7l1.9,0
			c2.4,0,4.2-0.4,5.4-1.1c1.2-0.7,2.1-2,2.8-3.7l1.5-3.9l-16.7-47.8H438L446.9,85.4z"/>
	</g>
</g>
</svg>